<svg version="1.1" id="_0087_work_chat_1_" xmlns="http://www.w3.org/2000/svg" xmlns:xlink="http://www.w3.org/1999/xlink"
	x="0px" y="0px" viewBox="0 0 500 500" xml:space="preserve" class="show_show__wrapper__graphic__5Waiy ">
	<title>React</title>
	<style type="text/css">
		.st0 {
			fill: #732A09;
		}

		.st1 {
			fill: #E21D49;
		}

		.st2 {
			fill: #FFFFFF;
		}

		.st3 {
			clip-path: url(#SVGID_2_);
		}

		.st4 {
			clip-path: url(#SVGID_4_);
		}
	</style>
<!-- 	<g id="line-2">
		<path class="st0" d="M478.6,249.2h-456c-0.3,0-0.5-0.2-0.5-0.5s0.2-0.5,0.5-0.5h456c0.3,0,0.5,0.2,0.5,0.5S478.9,249.2,478.6,249.2
		z"></path>
	</g> -->
	<g id="laptop-2">
		<polygon class="st1" points="178.6,270.7 350.4,270.7 410.7,312.6 118.4,312.6 	"></polygon>
		<path class="st0" d="M410.7,313.1H118.4c-0.3,0-0.5-0.2-0.5-0.5c0-0.2,0.1-0.3,0.2-0.4l60.3-41.9c0.1-0.1,0.2-0.1,0.3-0.1h171.8
		c0.1,0,0.2,0,0.3,0.1l60.3,41.9c0.2,0.1,0.3,0.3,0.2,0.6C411.1,313,410.9,313.1,410.7,313.1z M119.9,312.1h289.2l-58.8-40.9H178.8
		L119.9,312.1z"></path>
		<polygon class="st2" points="178.6,264.2 350.4,264.2 410.7,306.1 118.4,306.1 	"></polygon>
		<path class="st0" d="M410.7,306.6H118.4c-0.3,0-0.5-0.2-0.5-0.5c0-0.2,0.1-0.3,0.2-0.4l60.3-41.9c0.1-0.1,0.2-0.1,0.3-0.1h171.8
		c0.1,0,0.2,0,0.3,0.1l60.3,41.9c0.2,0.1,0.3,0.3,0.2,0.6C411.1,306.5,410.9,306.6,410.7,306.6z M119.9,305.6h289.2l-58.8-40.9
		H178.8L119.9,305.6z"></path>
		<polygon class="st1" points="318.4,305.5 210.7,305.5 223.5,291.7 305.5,291.7 	"></polygon>
		<polygon class="st1" points="263.3,268.6 251.2,268.6 250.3,272.1 263.3,272.1 	"></polygon>
		<polygon class="st1" points="265.4,272.1 278.2,272.1 277.3,268.6 265.4,268.6 	"></polygon>
		<polygon class="st1" points="248.1,280 263.3,280 263.3,274.3 249.7,274.3 	"></polygon>
		<polygon class="st1" points="265.4,280 280.4,280 278.8,274.3 265.4,274.3 	"></polygon>
		<polygon class="st1" points="280.6,272.1 293.2,272.1 291.3,268.6 279.6,268.6 	"></polygon>
		<polygon class="st1" points="247.3,274.3 234,274.3 230.9,280 245.8,280 	"></polygon>
		<polygon class="st1" points="196.5,280 210.7,280 215.3,274.3 202.6,274.3 	"></polygon>
		<polygon class="st1" points="235.2,272.1 247.9,272.1 248.9,268.6 237.1,268.6 	"></polygon>
		<polygon class="st1" points="231.3,274.3 218.3,274.3 213.7,280 228.3,280 	"></polygon>
		<polygon class="st1" points="314.5,280 309.9,274.3 297,274.3 300.1,280 	"></polygon>
		<polygon class="st1" points="281.2,274.3 282.7,280 297.4,280 294.4,274.3 	"></polygon>
		<polygon class="st1" points="341.7,272.1 352.5,272.1 347.6,268.6 337.1,268.6 	"></polygon>
		<polygon class="st1" points="331.6,280 325.5,274.3 312.9,274.3 317.5,280 	"></polygon>
		<polygon class="st1" points="348.7,280 341.1,274.3 328.8,274.3 334.9,280 	"></polygon>
		<polygon class="st1" points="311.1,272.1 323.1,272.1 319.4,268.6 308.3,268.6 	"></polygon>
		<polygon class="st1" points="295.8,272.1 308.1,272.1 305.4,268.6 294,268.6 	"></polygon>
		<polygon class="st1" points="322.7,268.6 326.4,272.1 338.1,272.1 333.5,268.6 	"></polygon>
		<polygon class="st1" points="220.1,272.1 232.5,272.1 234.4,268.6 222.9,268.6 	"></polygon>
		<polygon class="st1" points="316.3,282.3 301.3,282.3 304.1,287.4 320.5,287.4 	"></polygon>
		<polygon class="st1" points="205,272.1 217.1,272.1 219.9,268.6 208.7,268.6 	"></polygon>
		<polygon class="st1" points="351.7,282.3 337.3,282.3 342.8,287.4 358.6,287.4 	"></polygon>
		<polygon class="st1" points="186.2,272.1 190.9,268.6 181.5,268.6 176.6,272.1 	"></polygon>
		<polygon class="st1" points="355.7,274.3 344.7,274.3 352.3,280 363.8,280 	"></polygon>
		<polygon class="st1" points="334,282.3 319.3,282.3 323.5,287.4 339.5,287.4 	"></polygon>
		<polygon class="st1" points="185.3,287.4 190.8,282.3 176.2,282.3 169.3,287.4 	"></polygon>
		<polygon class="st1" points="165.3,280 175.6,280 183.2,274.3 173.4,274.3 	"></polygon>
		<polygon class="st1" points="179.2,280 193.2,280 199.3,274.3 186.8,274.3 	"></polygon>
		<polygon class="st1" points="189.8,272.1 201.7,272.1 205.4,268.6 194.5,268.6 	"></polygon>
		<polygon class="st1" points="208.9,282.3 194.1,282.3 188.5,287.4 204.8,287.4 	"></polygon>
		<polygon class="st1" points="227.1,282.3 211.9,282.3 207.8,287.4 224.3,287.4 	"></polygon>
		<polygon class="st1" points="229.7,282.3 298.6,282.3 301.4,287.4 227,287.4 	"></polygon>
		<path class="st2" d="M351.6,165.1l-1.1,96.3c0,1.5-1.3,2.8-2.8,2.8H181.4c-1.5,0-2.8-1.2-2.8-2.8l-1.1-96.3c0-1.5,1.2-2.8,2.7-2.8
		c0,0,0,0,0,0h168.5C350.3,162.2,351.6,163.5,351.6,165.1C351.6,165.1,351.6,165.1,351.6,165.1z"></path>
		<path class="st0" d="M347.7,264.7H181.4c-1.8,0-3.3-1.5-3.3-3.3l-1.1-96.3c0-0.9,0.4-1.7,1-2.4c0.6-0.6,1.5-1,2.3-1h168.5
		c1.8,0,3.3,1.5,3.3,3.3c0,0,0,0,0,0l-1.1,96.3C351,263.2,349.5,264.7,347.7,264.7z M180.3,162.8c-1.3,0-2.3,1-2.3,2.3c0,0,0,0,0,0
		l1.1,96.3c0,1.3,1,2.3,2.3,2.3h166.3c1.3,0,2.3-1,2.3-2.3l1.1-96.3l0,0c0-1.3-1-2.3-2.3-2.3c0,0,0,0,0,0L180.3,162.8z">
		</path>
		<polygon class="st2" points="182.9,259.8 181.9,166.6 347.2,166.6 346.1,259.8 	"></polygon>
		<path class="st0" d="M346.1,260.3H182.9c-0.3,0-0.5-0.2-0.5-0.5c0,0,0,0,0,0l-1.1-93.2c0-0.1,0-0.3,0.1-0.4
		c0.1-0.1,0.2-0.1,0.4-0.1h165.3c0.3,0,0.5,0.2,0.5,0.5l-1.1,93.2C346.6,260.1,346.4,260.3,346.1,260.3z M183.4,259.3h162.2
		l1.1-92.2H182.4L183.4,259.3z"></path>
		<path class="st2" d="M196,174.2h137.1c2.1,0,3.9,1.7,3.9,3.9v65.4c0,1.7-1.4,3.1-3.1,3.1H195.3c-1.7,0-3.1-1.4-3.1-3.1V178
		C192.1,175.9,193.9,174.2,196,174.2z"></path>
		<path class="st0" d="M333.8,247.1H195.3c-2,0-3.7-1.6-3.6-3.7V178c0-2.4,2-4.4,4.4-4.4h137.1c2.4,0,4.4,2,4.4,4.4v65.4
		C337.5,245.4,335.8,247.1,333.8,247.1C333.8,247.1,333.8,247.1,333.8,247.1z M196,174.7c-1.9,0-3.4,1.5-3.4,3.4v65.4
		c0,1.5,1.2,2.7,2.6,2.7h138.5c1.5,0,2.7-1.2,2.7-2.7V178c0-1.9-1.5-3.4-3.4-3.4L196,174.7z"></path>
		<path class="st0" d="M337,188H192.2c-0.3,0-0.5-0.2-0.5-0.5c0-0.3,0.2-0.5,0.5-0.5H337c0.3,0,0.5,0.2,0.5,0.5
		C337.5,187.8,337.3,188,337,188z"></path>
	</g>
	<g id="left-hand">
		<path class="st1" d="M170.3,314.9c3.4,6.8-0.9,14.1-12.2,22.7c-8.9,6.8-25.4,19.9-32,25.1c-2.2,1.7-4.7,2.9-7.4,3.4
		c-7.9,1.4-24.5,2.2-37.8-11.8c-18.2-19.1-2.6-29.3,3.6-34s37.1-21.4,40.5-22.9c3.4-1.5,12.5,0.4,12.5,0.4S163.3,302.1,170.3,314.9z
		"></path>
		<path class="st1" d="M110.3,367.3c-11.3,0.1-22.1-4.5-29.8-12.7c-6.2-6.5-9.1-12.7-8.6-18.3c0.7-7.7,7.4-12.7,11.4-15.7l0.8-0.6
		c6.1-4.6,37-21.3,40.6-22.9c3.6-1.6,12.5,0.3,12.8,0.4c4.7,0.9,9.4,2.1,13.9,3.8c9.9,3.6,16.4,8.1,19.3,13.5l0,0
		c3.4,6.8-0.5,14.2-12.3,23.3c-8.8,6.8-25.4,19.8-32,25.1c-2.2,1.8-4.9,3-7.7,3.5C115.9,367,113.1,367.3,110.3,367.3z M128.7,297.3
		c-1.2-0.1-2.5,0.1-3.6,0.5c-3.6,1.6-34.4,18.2-40.4,22.8l-0.9,0.6c-3.9,2.9-10.4,7.8-11,15c-0.4,5.3,2.4,11.2,8.4,17.6
		c13,13.7,29,13.2,37.4,11.7c2.6-0.5,5.1-1.6,7.2-3.3c6.7-5.3,23.2-18.4,32-25.1c11.4-8.7,15.2-15.7,12.1-22.1
		c-6.8-12.4-32.2-16.7-32.5-16.8C134.5,297.7,131.6,297.4,128.7,297.3L128.7,297.3z"></path>
		<path class="st2" d="M225.9,265.5c4.7,6.8,9.1,12.2,9.4,13.7s-2.6,3.2-6.4,2.4s-10.7-9.3-10.7-9.3L225.9,265.5z">
		</path>
		<path class="st0" d="M230.8,282.3c-0.7,0-1.3-0.1-2-0.2c-3.9-0.8-10.7-9.1-11-9.4c-0.2-0.2-0.1-0.5,0.1-0.7l7.7-6.8
		c0.2-0.2,0.5-0.2,0.7,0c0,0,0,0,0,0.1c1.8,2.5,3.5,4.9,5,6.9c2.9,3.9,4.4,6,4.5,7c0.1,0.7-0.2,1.3-0.7,1.8
		C233.9,281.9,232.3,282.4,230.8,282.3z M218.9,272.4c1.4,1.6,6.9,8.1,10.1,8.7c2.5,0.5,4.5-0.1,5.4-0.9c0.3-0.2,0.4-0.6,0.4-0.9
		c-0.1-0.8-2-3.5-4.3-6.5c-1.4-1.9-3-4.1-4.7-6.5L218.9,272.4z"></path>
		<path class="st2"
			d="M248.7,267.7c-4.3,1.5-15.3-2.7-18.1-1.4s-19.2,14.4-19.2,14.4s13.5-3.1,18.5-2.6s4.9,9.3-1.8,11.8
		s-37.1,8.7-57.7,25c-8.4-13.4-32.9-17-32.9-17s13.9-8.9,20.2-13.5s19.2-15,24.8-20.5s10.7-2.4,10.7-2.4c1.3-0.9,2.6-1.8,4-2.6
		c3.4-1.8,7.3,0.6,7.3,0.6l4.2-3c5.5-3.9,11,1.7,11,1.7c2.8-1.7,5.4-3,6.8-3.2c4-0.7,11.1,1.6,18,4.4S253,266.1,248.7,267.7z"></path>
		<path class="st0" d="M170.3,315.4L170.3,315.4c-0.2,0-0.3-0.1-0.4-0.2c-8.1-13-32.3-16.8-32.5-16.8c-0.3,0-0.5-0.3-0.4-0.6
		c0-0.1,0.1-0.3,0.2-0.4c0.1-0.1,13.9-8.9,20.2-13.5c6.1-4.4,19.1-14.9,24.7-20.5c5-5,9.8-3.2,11.1-2.6c1.2-0.9,2.5-1.7,3.8-2.4
		c3.1-1.6,6.5-0.1,7.5,0.4l2.4-1.7l1.6-1.1c5.1-3.6,10.1,0.4,11.4,1.5c3.1-1.9,5.4-2.9,6.6-3.1c3.6-0.6,9.7,0.9,18.3,4.4
		c4.4,1.8,6.9,4.2,6.9,6.4c0,0.7-0.4,2.1-2.7,2.9l0,0c-2.4,0.8-6.5,0-10.5-0.7c-3.1-0.6-6.4-1.2-7.6-0.7c-2.2,1-13.2,9.7-17.4,13
		c4-0.9,12.7-2.5,16.5-2.2c2.1,0.2,3.8,2,3.9,4.1c0.3,3.8-2,7.4-5.6,8.6c-1.3,0.5-3.4,1.1-6.1,1.8c-11.3,3.2-34.9,9.9-51.5,23.1
		C170.5,315.3,170.4,315.3,170.3,315.4z M138.8,297.6c4.1,0.8,8.2,1.9,12.1,3.3c6.5,2.3,15,6.5,19.5,13.3
		c16.8-13.1,40.2-19.8,51.4-23c2.7-0.8,4.8-1.4,6-1.8c3.2-1.1,5.2-4.2,4.9-7.5c0-1.7-1.3-3.1-3-3.3c-4.8-0.5-18.2,2.6-18.3,2.6
		c-0.2,0.1-0.5-0.1-0.6-0.3c-0.1-0.2,0-0.5,0.1-0.6c0.7-0.5,16.5-13.2,19.3-14.5c1.5-0.7,4.6-0.1,8.2,0.6s7.8,1.5,10,0.8l0,0
		c0.9-0.3,2-0.9,2-2c0-1.3-1.6-3.5-6.3-5.4c-8.3-3.4-14.4-4.9-17.7-4.4c-0.8,0.1-2.6,0.8-6.6,3.2c-0.2,0.1-0.5,0.1-0.6-0.1
		c-0.2-0.2-5.3-5.3-10.4-1.7l-1.6,1.1l-2.6,1.9c-0.2,0.1-0.4,0.1-0.6,0c0,0-3.7-2.2-6.8-0.6c-1.4,0.8-2.7,1.6-3.9,2.5
		c-0.2,0.1-0.4,0.1-0.6,0c-0.2-0.1-5-2.9-10.1,2.3c-5.8,5.9-18.8,16.3-24.8,20.7C152.7,288.5,142.2,295.4,138.8,297.6z M248.7,267.7
		L248.7,267.7z"></path>
		<path class="st0" d="M198.2,264.3c-0.2,0-0.3-0.1-0.4-0.2c-0.2-0.2-0.1-0.5,0.1-0.7c0,0,0,0,0,0l6.2-4.4c0.2-0.2,0.5-0.1,0.7,0.1
		c0,0,0,0,0,0c0.2,0.2,0.1,0.5-0.1,0.7c0,0,0,0,0,0l-6.2,4.4C198.5,264.3,198.4,264.3,198.2,264.3z"></path>
		<path class="st0" d="M189.1,265.2c-0.3,0-0.5-0.2-0.5-0.5c0-0.1,0.1-0.3,0.2-0.4c0,0,1.9-1.6,4.1-3.3c0.2-0.2,0.5-0.1,0.7,0.1
		c0.2,0.2,0.1,0.5-0.1,0.7c-2.2,1.6-4.1,3.2-4.1,3.2C189.3,265.1,189.2,265.2,189.1,265.2z"></path>
		<path class="st0" d="M208.6,266c-0.2,0-0.3-0.1-0.4-0.2c-0.2-0.2-0.1-0.5,0.1-0.7c0.1,0,6-4.3,11.2-7.4c0.2-0.1,0.5-0.1,0.7,0.2
		c0.1,0.2,0.1,0.5-0.2,0.7c-5.1,3.1-11,7.3-11.1,7.3C208.8,266,208.7,266,208.6,266z"></path>
		<path class="st2" d="M211.4,280.7c-2.4,0.4-4.7,1-6.9,1.8"></path>
		<path class="st0" d="M204.4,282.9c-0.3,0-0.5-0.1-0.6-0.4s0.1-0.5,0.4-0.6c2.3-0.8,4.6-1.3,7-1.8c0.3-0.1,0.5,0.1,0.6,0.4
		c0,0,0,0,0,0c0.1,0.3-0.1,0.5-0.4,0.6c0,0,0,0,0,0c-2.3,0.4-4.6,1-6.9,1.7C204.5,282.9,204.5,282.9,204.4,282.9z"></path>
		<path class="st0" d="M126.1,363.2c-0.2,0-0.3-0.1-0.4-0.2c-0.2-0.2-0.1-0.5,0.1-0.7c0,0,0,0,0,0c6.7-5.3,23.2-18.4,32.1-25.1
		c11.4-8.7,15.2-15.7,12-22.1c-6.7-12.4-32.2-16.7-32.5-16.8c-0.3-0.1-0.5-0.3-0.4-0.6c0-0.3,0.3-0.5,0.6-0.4
		c4.7,0.9,9.4,2.1,13.9,3.8c9.9,3.6,16.4,8.1,19.3,13.5c3.4,6.8-0.5,14.2-12.3,23.3c-8.8,6.8-25.4,19.8-32,25.1
		C126.3,363.1,126.2,363.2,126.1,363.2z"></path>
	</g>
	<g id="right-hand">
		<path class="st2" d="M305.8,263.5c0,0-0.2,1.2-7.4,6.9s-18,5-16.9,1.7s19.5-14.4,19.5-14.4L305.8,263.5z"></path>
		<path class="st0" d="M286.2,275.1c-1.5,0.1-3.1-0.3-4.4-1c-0.8-0.4-1.1-1.4-0.8-2.2c1.1-3.4,17.8-13.5,19.7-14.7
		c0.2-0.1,0.5-0.1,0.6,0.1l4.8,5.8c0.1,0.1,0.1,0.3,0.1,0.4c-0.1,0.3-0.8,1.8-7.5,7.2C295.1,273.5,290.8,275,286.2,275.1z
		 M300.9,258.3c-7.3,4.5-18.1,11.6-18.9,13.9c-0.1,0.3-0.1,0.6,0.4,1.1c2.2,1.5,10.1,1.1,15.6-3.3c5.3-4.2,6.7-5.9,7.1-6.5
		L300.9,258.3z"></path>
		<path class="st2" d="M383.2,298.2c0,0-14.5,2.7-22.2,7.9s-9.4,9.5-9.4,9.5s-12.4-11-33.9-17.2s-30.5-7.1-28.7-14.2
		s20.4-3.5,20.4-3.5s-24.1-22.4-28.8-26.8s-3.6-6.9-1.6-8.2s14.2,7.3,21.9,12.1c0,0,4.8-3,8.8-2.2c1.5,0.3,4.1,1.9,6.8,3.7
		c2.6-0.8,5.4-0.8,8,0c1.3,0.5,2.6,1.2,3.8,2l0,0c4-0.7,8.1,0.4,11.1,3.1C345.1,268.9,372.9,292.3,383.2,298.2z"></path>
		<path class="st0" d="M351.5,316.1c-0.1,0-0.2,0-0.3-0.1c-0.1-0.1-12.6-11-33.7-17.1c-3.8-1.1-7.3-2.1-10.3-2.9
		c-14.4-4-20.3-5.6-18.7-11.9s14.6-4.9,19.3-4.1c-5-4.6-23.6-21.9-27.5-25.7c-2.5-2.3-3.6-4.4-3.4-6.2c0.1-1.2,0.9-2.2,1.9-2.8
		c1.8-1.1,7.7,2.6,17.3,8.8c1.7,1.1,3.4,2.2,4.9,3.1c1.1-0.6,5.2-2.8,8.8-2.2c1.4,0.3,3.6,1.5,6.8,3.7c2.7-0.7,5.5-0.7,8.1,0.1
		c1.3,0.5,2.6,1.2,3.7,2h0.2c4-0.7,8,0.5,11,3.2l2,1.7c8,6.7,32.3,26.9,41.6,32.3c0.2,0.1,0.3,0.3,0.2,0.5c0,0.2-0.2,0.4-0.4,0.4
		c-0.1,0-14.5,2.8-22,7.8s-9.2,9.2-9.2,9.3c-0.1,0.2-0.2,0.3-0.4,0.3L351.5,316.1z M299.7,280.2c-4.6,0-9.3,0.8-10.2,4
		c-1.3,5.1,3.3,6.6,18,10.7c3,0.8,6.5,1.8,10.3,2.9c18.9,5.5,31,14.8,33.5,16.9c0.8-1.4,3.1-5,9.3-9.1c6.5-4.3,17.4-6.9,21.1-7.7
		c-10-6.2-32.1-24.6-40.7-31.7l-2-1.7c-2.8-2.5-6.6-3.6-10.3-3c-0.2,0-0.4,0-0.6,0c-0.1,0-0.1,0-0.2-0.1c-1.1-0.8-2.3-1.5-3.6-1.9
		c-2.5-0.7-5.2-0.7-7.7,0c-0.1,0-0.3,0-0.4-0.1c-3.9-2.7-5.8-3.5-6.6-3.6c-3.7-0.7-8.4,2.2-8.4,2.2c-0.2,0.1-0.4,0.1-0.5,0
		c-1.6-1-3.3-2.1-5.1-3.3c-5.9-3.8-14.9-9.6-16.3-8.8c-0.8,0.4-1.3,1.2-1.5,2.1c-0.1,1.4,0.9,3.3,3.1,5.4
		c4.5,4.3,28.5,26.6,28.7,26.8c0.2,0.2,0.2,0.4,0.1,0.6c-0.1,0.2-0.3,0.3-0.5,0.3C306.1,280.5,302.9,280.2,299.7,280.2z">
		</path>
		<path class="st0" d="M313,266.1c-0.1,0-0.2,0-0.3-0.1c0,0-4.4-3.1-11.9-7.9c-0.2-0.1-0.3-0.5-0.1-0.7c0.1-0.2,0.4-0.3,0.7-0.2
		c0,0,0,0,0,0c7.6,4.8,12,7.9,12,7.9c0.2,0.2,0.3,0.5,0.1,0.7C313.3,266,313.2,266.1,313,266.1z"></path>
		<path class="st0" d="M325.4,266.3c-0.1,0-0.2,0-0.3-0.1c0,0-4.5-3.7-8.8-6.6c-0.2-0.2-0.3-0.5-0.1-0.7c0.2-0.2,0.5-0.3,0.7-0.1
		c4.3,3,8.8,6.6,8.8,6.7c0.2,0.2,0.2,0.5,0.1,0.7C325.6,266.2,325.5,266.3,325.4,266.3z"></path>
		<path class="st0"
			d="M334,266.3c-0.1,0-0.3-0.1-0.4-0.1c-1.7-1.7-3.6-3.2-5.6-4.6c-0.2-0.2-0.3-0.5-0.1-0.7
		c0.2-0.2,0.5-0.3,0.7-0.1c0,0,0,0,0,0c2,1.4,3.9,3,5.7,4.7c0.2,0.2,0.2,0.5,0,0.7c0,0,0,0,0,0C334.3,266.2,334.1,266.3,334,266.3z">
		</path>
		<path class="st0"
			d="M317.4,283.8c-0.1,0-0.2,0-0.2-0.1c-2.5-1.2-5.1-2-7.8-2.6c-0.3-0.1-0.4-0.3-0.4-0.6c0,0,0,0,0,0
		c0.1-0.3,0.3-0.4,0.6-0.4c0,0,0,0,0,0c2.8,0.6,5.5,1.4,8.1,2.7c0.2,0.1,0.3,0.4,0.2,0.7C317.7,283.7,317.6,283.8,317.4,283.8z"></path>
		<path class="st1" d="M351.5,315.6c-1.8,5.8,1.6,11.9,15.1,23.2s33,24.4,33,24.4s35.5-11.6,41.1-37.5l-41.6-25.3
		c-3-1.8-6.4-2.7-9.9-2.6c-1.7,0-3.8,0.2-6.1,0.4C375.9,298.9,357.4,304.6,351.5,315.6z"></path>
		<path class="st1" d="M399.7,363.7c-0.1,0-0.2,0-0.3-0.1c-0.2-0.1-19.6-13.2-33-24.4c-13.2-11-17.3-17.5-15.3-23.8v-0.1
		c6.1-11.5,25.6-17,32-17.7c2.1-0.2,4.1-0.4,6.1-0.4c3.6-0.1,7.1,0.8,10.1,2.7l41.6,25.3c0.2,0.1,0.3,0.3,0.2,0.5
		c-5.6,25.8-41.1,37.7-41.4,37.8C399.8,363.6,399.7,363.7,399.7,363.7z M352,315.8c-1.8,5.8,2.2,12,15,22.6s30.6,22.8,32.7,24.2
		c3-1.1,35-12.7,40.5-36.7l-41.3-25.1c-2.9-1.8-6.2-2.6-9.6-2.5c-2,0-4,0.2-6,0.4C377,299.3,358,304.6,352,315.8z"></path>
		<path class="st0" d="M383.2,352c-0.1,0-0.2,0-0.3-0.1c-6.5-4.8-12.1-9.1-16.5-12.8c-13.2-11-17.3-17.5-15.3-23.8
		c6.1-11.6,25.6-17.1,32-17.8c0.3,0,0.5,0.2,0.6,0.4s-0.2,0.5-0.4,0.6c-6.3,0.7-25.3,6-31.2,17.1c-1.8,5.8,2.2,11.9,15,22.6
		c4.4,3.7,10,8,16.5,12.8c0.2,0.2,0.3,0.5,0.1,0.7C383.4,352,383.3,352,383.2,352L383.2,352z"></path>
	</g>
	<g id="chat-1">
		<circle class="st2" cx="165.3" cy="201.6" r="27.5"></circle>
		<path class="st0" d="M165.3,229.6c-15.5,0-28-12.5-28-28s12.5-28,28-28s28,12.5,28,28S180.7,229.6,165.3,229.6z M165.3,174.7
		c-14.9,0-27,12.1-27,27s12.1,27,27,27s27-12.1,27-27S180.2,174.7,165.3,174.7L165.3,174.7z"></path>
		<g>
			<defs>
				<path id="SVGID_1_" d="M186.7,185.1v-22.2h-42.8v22.2c-9.1,11.8-6.9,28.8,4.9,37.9s28.8,6.9,37.9-4.9
				C194.2,208.4,194.2,194.8,186.7,185.1L186.7,185.1z"></path>
			</defs>
			<clipPath id="SVGID_2_">
				<use xlink:href="#SVGID_1_" style="overflow: visible;"></use>
			</clipPath>
			<g class="st3">
				<path class="st2"
					d="M154.7,191.1c0,0-4.8,0.8-7.2-3.2s-0.3-13,8.8-15.2s10.3,6.5,7.8,9.2S154.7,191.1,154.7,191.1z">
				</path>
				<path class="st0" d="M153.7,191.7c-2.7,0.1-5.2-1.2-6.6-3.5c-1.3-2.1-1.3-5.4-0.1-8.4c1.6-3.9,5.1-6.7,9.2-7.6
				c5.3-1.3,7.6,1,8.6,2.6c1.6,2.6,1.1,6-0.3,7.5c-2.5,2.8-9.1,8.9-9.4,9.2c-0.1,0.1-0.2,0.1-0.3,0.1
				C154.4,191.6,154.1,191.7,153.7,191.7z M154.7,191.1L154.7,191.1z M159.1,172.8c-0.9,0-1.8,0.1-2.6,0.4c-3.8,0.8-7,3.4-8.5,7
				c-1.1,2.7-1.1,5.6,0,7.5c2,3.3,5.8,3.1,6.6,3c0.9-0.8,7-6.5,9.2-9c1.1-1.3,1.5-4.2,0.1-6.3C162.8,173.7,161,172.7,159.1,172.8
				L159.1,172.8z"></path>
				<path class="st2" d="M179,196.4l-23.7-3.3c0,0-3.9,0.5-4.9,3s-0.8,3-1.4,3.2s-4.1,0.8-5,4.3c-0.5,1.7-0.7,3.4-0.4,5.1
				c-0.1,0.8-3.6,3.5-3.4,8.2s3.2,6.3,3.2,6.3l35.2-9.1c6.6,0.2,8.7-4.1,8.7-8.1s-4-4.8-4.5-5.4S182.1,197.1,179,196.4">
				</path>
				<path class="st0" d="M143.4,223.8c-0.1,0-0.2,0-0.2-0.1c-0.1-0.1-3.2-1.8-3.5-6.7c0-2.8,1-5.4,2.8-7.5c0.2-0.3,0.4-0.5,0.6-0.8
				c0-0.2,0-0.3,0-0.5c-0.1-1.6,0-3.1,0.5-4.6c0.9-3.4,4-4.3,5.1-4.6l0.3-0.1c0.1,0,0.1-0.1,0.3-0.7s0.4-1.2,0.8-2.2
				c1.1-2.7,5.1-3.2,5.2-3.3c0,0,0.1,0,0.1,0l23.7,3.3l0,0c2,0.5,3.5,2,4,3.9c0.1,0.2,0.1,0.4,0.2,0.6c0.2,0.1,0.4,0.3,0.6,0.4
				c1.4,0.7,3.9,2,3.9,5.3c0.1,2.4-0.8,4.6-2.4,6.3c-1.8,1.6-4.3,2.4-6.7,2.2L143.4,223.8L143.4,223.8z M155.2,193.6
				c-0.5,0.1-3.6,0.6-4.4,2.6c-0.4,1-0.6,1.7-0.8,2.1c-0.2,0.8-0.4,1.2-0.9,1.4l-0.4,0.1c-1,0.3-3.6,1.1-4.4,3.9
				c-0.4,1.4-0.6,2.8-0.5,4.3c0,0.2,0,0.5,0,0.7c0,0.3-0.3,0.7-0.8,1.3c-1.7,1.9-2.6,4.3-2.6,6.8c0,2.3,1,4.4,2.8,5.8l35-9h0.1
				c2.2,0.2,4.4-0.5,6.1-1.9c1.4-1.5,2.2-3.5,2.1-5.6c0-2.7-2.1-3.8-3.4-4.4c-0.4-0.1-0.7-0.4-1-0.6c-0.2-0.3-0.3-0.5-0.4-0.8
				c-0.4-1.1-1.1-2.9-3.2-3.3L155.2,193.6z"></path>
				<path class="st2" d="M155,195.6c-1.7-2.5-1.4-8.4,4.1-12.9s14.1-1.8,14.1-1.8c2.3-1.5,6.2-0.6,7.4,4.5c0.7,3.1,0.2,6.3-1.3,9
				L155,195.6z"></path>
				<path class="st0" d="M155,196.1c-0.2,0-0.3-0.1-0.4-0.2c-1.8-2.6-1.7-8.7,4.2-13.5c5.2-4.3,12.9-2.4,14.3-2
				c1.3-0.7,2.8-0.8,4.1-0.3c1.9,0.8,3.2,2.6,3.8,5.2c0.7,3.2,0.3,6.5-1.3,9.4c-0.1,0.1-0.2,0.2-0.4,0.2L155,196.1z M167.4,180.7
				c-2.9-0.1-5.7,0.8-8,2.5c-5,4.1-5.6,9.5-4.1,12L179,194c1.3-2.6,1.7-5.6,1.1-8.4c-0.5-2.2-1.7-3.8-3.2-4.5
				c-1.1-0.5-2.4-0.3-3.4,0.3c-0.1,0.1-0.3,0.1-0.4,0.1C171.2,181,169.3,180.7,167.4,180.7L167.4,180.7z"></path>
				<path class="st2" d="M209.8,202.7h-0.1c-0.6,0-1.1-0.4-1.4-1c0.9-1.4,1.1-3.1,0.6-4.6c0,0,0.6-0.8,1.6,0c0.3,0.3,0.5,0.8,0.5,1.2
				C211.3,200,210.8,202.7,209.8,202.7z"></path>
				<path class="st0" d="M209.8,203.2h-0.2c-0.8-0.1-1.5-0.6-1.7-1.3c-0.1-0.2-0.1-0.4,0.1-0.6c0.8-1.2,1-2.7,0.6-4.1
				c-0.1-0.2,0-0.3,0.1-0.5c0.2-0.3,0.6-0.5,0.9-0.6c0.5-0.1,1,0.1,1.4,0.4c0.4,0.4,0.7,1,0.7,1.6c0.2,1.4-0.1,3.6-0.9,4.5
				C210.5,203.1,210.2,203.2,209.8,203.2z M208.9,201.8c0.2,0.3,0.5,0.4,0.8,0.5l0.1,0.5v-0.5c0.1,0,0.2-0.1,0.2-0.1
				c0.6-1.1,0.8-2.4,0.6-3.7c0-0.3-0.1-0.7-0.3-0.9c-0.2-0.2-0.4-0.2-0.6-0.2c0,0-0.1,0-0.1,0C209.9,198.8,209.7,200.4,208.9,201.8z
				"></path>
				<path class="st2" d="M212.9,200.9c-0.2,0.6-0.4,1.1-0.6,1.6c-0.6,1.1-1.2,1.3-1.9,1.1c-0.4-0.1-0.6-0.5-0.7-0.8h0.1
				c1.1,0,1.6-2.7,1.3-4.4C212.2,198,213.5,198.7,212.9,200.9z"></path>
				<path class="st0" d="M210.9,204.2c-0.2,0-0.5,0-0.7-0.1c-0.5-0.2-0.9-0.7-1-1.2c0-0.2,0-0.3,0.1-0.4c0.1-0.1,0.3-0.2,0.4-0.2l0,0
				c0.1,0,0.2-0.1,0.2-0.1c0.6-1.1,0.8-2.4,0.6-3.7c0-0.2,0.1-0.5,0.4-0.6c0.7-0.2,1.5-0.1,2,0.4c0.4,0.3,0.9,1.1,0.4,2.8l0,0
				c-0.2,0.6-0.4,1.2-0.6,1.7C212.2,203.7,211.6,204.2,210.9,204.2z M210.4,203l0.1,0.1c0.3,0.1,0.7,0.3,1.2-0.8
				c0.2-0.5,0.4-1,0.6-1.5l0,0c0.2-0.8,0.2-1.5-0.1-1.8c-0.2-0.2-0.4-0.2-0.6-0.2l0,0c0.1,1.4-0.2,2.8-0.9,4
				C210.6,202.8,210.5,202.9,210.4,203L210.4,203z M212.9,200.9L212.9,200.9z"></path>
				<path class="st2" d="M211.9,205.3c-1.2,1.9-2.9,1.6-3.1,3.8l-6.6-1.5c0.6-2.9-3.2-6.8-2.6-8.3s4.1,2.8,4.1,2.8s-0.2-9.4,0.3-11.4
				s2.8,2.4,2.4,5.7c0,0-0.8,5.4,0.8,5.7c0.3,0,0.7-0.1,0.9-0.4c0.2,0.6,0.7,1,1.4,1c0.1,0.4,0.3,0.7,0.7,0.8c0.7,0.3,1.3,0,1.9-1.1
				C212.5,203.4,212.4,204.5,211.9,205.3z"></path>
				<path class="st0"
					d="M208.8,209.6h-0.1l-6.6-1.5c-0.3-0.1-0.4-0.3-0.4-0.6c0.3-1.4-0.6-3.2-1.5-4.8s-1.4-2.7-1.1-3.6
				c0.1-0.3,0.4-0.6,0.8-0.6c0.9-0.1,2.3,1.1,3.3,2.2c0-2.7-0.1-8.6,0.4-10.1c0.3-0.9,0.9-0.9,1-0.8c1.3,0.2,2.6,4,2.4,6.8
				c-0.4,2.4-0.3,5,0.4,5.1c0.1,0,0.2,0,0.4-0.2c0.1-0.1,0.3-0.2,0.4-0.1c0.2,0,0.3,0.1,0.4,0.3c0.1,0.4,0.5,0.7,0.9,0.7
				c0.2,0,0.4,0.2,0.5,0.4c0,0.2,0.2,0.4,0.4,0.5c0.3,0.1,0.7,0.3,1.2-0.8c0.1-0.2,0.3-0.3,0.5-0.3c0.2,0,0.4,0.2,0.4,0.4
				c0.3,1.1,0.2,2.2-0.4,3.2l0,0c-0.5,0.7-1.1,1.3-1.8,1.7c-0.7,0.3-1.2,1-1.2,1.8c0,0.1-0.1,0.3-0.2,0.4
				C209,209.5,208.9,209.5,208.8,209.6z M202.8,207.2l5.6,1.3c0.2-0.9,0.8-1.6,1.6-2c0.6-0.4,1.1-0.8,1.5-1.4
				c0.2-0.4,0.4-0.8,0.4-1.2c-0.5,0.4-1.1,0.5-1.7,0.2c-0.4-0.1-0.7-0.5-0.9-0.9c-0.4-0.1-0.8-0.4-1.1-0.7c-0.3,0.1-0.6,0.2-0.9,0.1
				c-2-0.3-1.5-4.9-1.2-6.2c0.2-2-0.4-3.9-1.4-5.6l0,0c-0.4,1.5-0.4,8.6-0.3,11.2c0,0.2-0.1,0.4-0.3,0.5c-0.2,0.1-0.4,0-0.6-0.1
				c-1.3-1.6-2.8-3-3.3-2.9c-0.2,0.5,0.5,1.7,1,2.7C202,203.8,202.9,205.6,202.8,207.2L202.8,207.2z M211.9,205.3L211.9,205.3z"></path>
				<path class="st2" d="M208.3,201.7c-0.2,0.3-0.6,0.4-0.9,0.4c-1.7-0.3-0.8-5.7-0.8-5.7s0.8-1.4,2,0c0.2,0.2,0.3,0.4,0.4,0.7
				C209.4,198.6,209.2,200.3,208.3,201.7z"></path>
				<path class="st0" d="M207.6,202.6h-0.2c-2-0.3-1.5-4.9-1.2-6.2c0-0.1,0-0.1,0.1-0.2c0.4-0.8,1.4-1.1,2.2-0.7
				c0.3,0.1,0.5,0.4,0.7,0.6c0.2,0.2,0.3,0.5,0.4,0.8c0.5,1.7,0.3,3.6-0.8,5.1l0,0C208.4,202.4,208,202.6,207.6,202.6z M207.1,196.6
				c-0.3,2.3-0.2,4.9,0.4,5c0.1,0,0.2,0,0.4-0.2l0,0c0.8-1.2,1-2.7,0.6-4.1c-0.1-0.2-0.2-0.4-0.3-0.5c-0.2-0.2-0.4-0.4-0.7-0.4
				C207.3,196.3,207.2,196.4,207.1,196.6L207.1,196.6z"></path>
				<path class="st1" d="M200,230.3c-11.2,5.6-16,2.1-16.1,2c0.1,0.2,8.5,15.1,6.4,25.6c-0.3,1.3-1,2.5-2.1,3.4
				c-4.8,3.6-20.4,12.6-45.7,1.3l0.4-9.1c-7.7-6-8.1-19.6-1.7-30.2c7.7-12.9,20.2-13.7,20.2-13.7l7.9-0.7c5.5,1.6,10.8,3.9,15.8,6.9
				c8.7,5,14.2,1,15.6-7.8c0.1-0.7,0.7-1.2,1.3-1.2c1.9-0.1,5.6-0.2,7.6,1.7c0.3,0.3,0.4,0.6,0.4,1
				C210.1,212.3,210.1,225.2,200,230.3z"></path>
				<path class="st2" d="M167.1,244.8c0,0,0.2-4.5,1.5-5.3s1,2.5,1,2.5l4-4.7c0,0,1.6,4.2,0,7.8s-3.8,2.8-4.4,4.6
				S166.2,247.2,167.1,244.8z"></path>
				<path class="st0" d="M168.8,250.7c-0.4,0-0.8-0.2-1-0.6c-1.2-1.5-1.6-3.5-1.2-5.4c0-1,0.3-4.8,1.8-5.6c0.3-0.2,0.8-0.2,1.1,0
				c0.4,0.4,0.7,1,0.6,1.6l3.1-3.6c0.1-0.1,0.3-0.2,0.5-0.2c0.2,0,0.3,0.1,0.4,0.3c0.1,0.2,1.7,4.4,0,8.2c-0.6,1.5-1.7,2.7-3.2,3.4
				c-0.6,0.3-1,0.6-1.2,1.1c-0.1,0.4-0.4,0.7-0.7,0.8L168.8,250.7z M168.8,249.7L168.8,249.7z M168.9,239.9h-0.1
				c-0.8,0.4-1.2,3.1-1.3,4.9v0.1c-0.3,1.3-0.1,2.6,0.5,3.8c0.1,0.3,0.4,0.6,0.6,0.9l0,0c0.3-0.8,0.9-1.4,1.7-1.7
				c1.3-0.6,2.3-1.7,2.8-3c0.8-2.1,0.9-4.4,0.2-6.6l-3.4,4c-0.1,0.2-0.4,0.2-0.6,0.1c-0.2-0.1-0.3-0.3-0.3-0.5
				C169.2,241.3,169.2,240.6,168.9,239.9L168.9,239.9z"></path>
				<path class="st1" d="M149.9,232.2c2,17,17.1,12.6,17.1,12.6c2.8,2.7,2.1,7.5,2.1,7.5s-7.1,6.5-20.3,3.9c-2.2-0.4-4.3-1.3-6.1-2.7
				c-1.5-1.3-2.8-2.8-3.7-4.5C138,246.8,149.9,232.2,149.9,232.2z"></path>
				<path class="st2" d="M160,201.6c0.3,4.1,0.2,8.9,0.2,8.9c0.9,2.2,3.1,3.6,5.5,3.6c4.1-0.1,3.8-3.6,3.7-4.3s-1-2.9-1.1-3.7
				S160,201.6,160,201.6z"></path>
				<path class="st0" d="M165.5,214.7c-2.5-0.1-4.8-1.6-5.8-3.9c0-0.1,0-0.1,0-0.2c0-0.1,0-4.9-0.2-8.9c0-0.3,0.2-0.5,0.5-0.5
				c0.1,0,0.2,0,0.2,0c8.4,3.9,8.6,4.6,8.6,4.9s0.2,0.8,0.4,1.4c0.3,0.8,0.5,1.6,0.7,2.4c0.2,1.2-0.1,2.5-0.9,3.5
				c-0.9,0.9-2.1,1.4-3.3,1.4L165.5,214.7z M160.7,210.5c0.9,2,2.8,3.3,5,3.2c1,0.1,1.9-0.3,2.6-1c0.6-0.8,0.8-1.8,0.6-2.7
				c-0.2-0.7-0.4-1.5-0.6-2.2c-0.2-0.6-0.4-1.2-0.5-1.5c-2.3-1.5-4.8-2.7-7.3-3.9C160.8,206,160.7,209.8,160.7,210.5z">
				</path>
				<path class="st2" d="M178.5,189.8c0,0,2.9,10.9-1.8,15s-15.5,2.4-18.1-4.9c0,0-2.4,2.3-4-0.4s0.9-5.4,3.8-3.9
				c0,0,1.3-2.8,6.9-4.2c3.2-0.8,6.1-2.4,8.6-4.6C173.8,186.6,174.6,188.5,178.5,189.8z"></path>
				<path class="st0" d="M170.1,207.4c-1.3,0-2.5-0.2-3.7-0.5c-3.5-0.8-6.4-3.1-7.9-6.3c-0.6,0.4-1.4,0.7-2.1,0.6
				c-0.9-0.2-1.7-0.8-2.1-1.6c-1-1.4-0.7-3.4,0.7-4.5c1-0.7,2.2-0.8,3.3-0.3c0.6-0.9,2.5-2.9,6.9-4.1c3.1-0.8,6-2.3,8.3-4.5
				c0.1-0.1,0.3-0.2,0.4-0.1c0.2,0,0.3,0.1,0.4,0.3c0,0,0.8,1.8,4.4,2.9c0.2,0.1,0.3,0.2,0.3,0.4c0.1,0.5,2.9,11.3-1.9,15.5
				C175,206.7,172.6,207.5,170.1,207.4z M158.6,199.3h0.1c0.2,0,0.3,0.2,0.4,0.3c1.3,3.2,4.1,5.6,7.5,6.3c3.7,1,7.6,0.3,9.8-1.6
				c4-3.4,2.1-12.5,1.7-14.2c-1.7-0.5-3.2-1.4-4.4-2.8c-2.4,2.1-5.3,3.6-8.4,4.3c-5.2,1.4-6.5,4-6.5,4c-0.1,0.1-0.2,0.2-0.3,0.3
				c-0.1,0.1-0.3,0.1-0.4,0c-0.9-0.6-2.2-0.5-3,0.2c-0.7,0.8-0.8,2-0.1,2.9c0.3,0.6,0.8,1,1.4,1.1c0.7,0,1.4-0.3,1.9-0.8
				C158.4,199.4,158.5,199.3,158.6,199.3z"></path>
				<path class="st0" d="M168.4,194.1c-0.6-0.1-1.2-0.1-1.8-0.1c-0.3,0-0.6,0-0.9,0c-0.3,0-0.6,0-0.9,0l0,0c-0.2,0-0.3-0.1-0.3-0.3
				c0,0,0,0,0,0c0-0.1,0.1-0.2,0.1-0.2c1.3-0.7,2.8-0.6,4,0.1c0.1,0.1,0.2,0.3,0.1,0.4C168.7,194.1,168.6,194.2,168.4,194.1
				L168.4,194.1z"></path>
				<path class="st0" d="M177.9,193.2c-0.7,0.1-1.4,0.1-2.1,0.2s-1.4,0.2-2.1,0.2l0,0c-0.2,0-0.3-0.1-0.3-0.3c0,0,0,0,0,0
				c0-0.1,0.1-0.2,0.2-0.3c0.3-0.2,0.7-0.3,1.1-0.4c0.4-0.1,0.7-0.2,1.1-0.2c0.8-0.1,1.6,0,2.3,0.2c0.2,0.1,0.2,0.2,0.2,0.4
				c0,0,0,0,0,0C178.1,193.1,178,193.2,177.9,193.2L177.9,193.2z"></path>
				<path class="st0" d="M173.9,200h-0.2c-0.9-0.1-1.6-0.9-1.6-1.8c0-0.2,0.2-0.3,0.4-0.3c0.2,0,0.3,0.2,0.3,0.3c0,0.5,0.5,1,1,1
				c0.3,0.1,0.7-0.2,0.7-0.5c0,0,0-0.1,0-0.1c0-0.2,0-0.3-0.1-0.5c-0.4-0.3-0.8-0.5-1.3-0.5c-0.2,0-0.4-0.2-0.4-0.4l0,0
				c0-1.3,0.1-2.7,0.3-4c0-0.2,0.2-0.3,0.4-0.3c0.2,0,0.3,0.2,0.3,0.4c0,0,0,0,0,0c-0.2,1.2-0.3,2.4-0.3,3.6
				c0.6,0.1,1.1,0.3,1.5,0.7c0.2,0.3,0.3,0.7,0.2,1.1C175.3,199.5,174.7,200,173.9,200z"></path>
				<path class="st0" d="M166.2,196.5c0.1,0.7,0.5,1.2,0.9,1.1s0.8-0.6,0.7-1.3c0-0.2-0.1-0.4-0.1-0.5l-0.7,0.5l0.3-1
				c-0.1-0.1-0.2-0.1-0.3-0.1C166.5,195.3,166.2,195.8,166.2,196.5z"></path>
				<path class="st0" d="M175.2,195.7c0.1,0.7,0.5,1.2,0.9,1.1s0.8-0.6,0.7-1.3c0-0.2-0.1-0.4-0.1-0.5l-0.7,0.5l0.3-1
				c-0.1,0-0.2-0.1-0.3-0.1C175.5,194.5,175.2,195.1,175.2,195.7z"></path>
				<path class="st0" d="M170.8,203.2c-0.2,0-0.4,0-0.5-0.1c-0.8-0.2-1.3-0.9-1.5-1.6c-0.1-0.3,0.1-0.6,0.4-0.6
				c0.3-0.1,0.6,0.1,0.6,0.3c0.1,0.5,0.4,0.8,0.8,1c0.6,0.1,1.2-0.1,1.6-0.6c0.2-0.2,0.5-0.2,0.7,0c0,0,0,0,0,0
				c0.2,0.2,0.2,0.5,0,0.7c0,0,0,0,0,0C172.3,202.9,171.5,203.2,170.8,203.2z"></path>
				<path class="st0" d="M155.2,198c0,0-0.1,0-0.1,0c-0.2-0.1-0.3-0.3-0.2-0.5c0,0,0,0,0,0c0.2-0.5,0.5-1,1-1.2
				c0.7-0.2,1.4-0.2,2,0.1c0.2,0.1,0.3,0.3,0.2,0.5c-0.1,0.2-0.3,0.3-0.5,0.2c-0.4-0.2-0.9-0.2-1.4-0.1c-0.3,0.2-0.5,0.4-0.6,0.8
				C155.5,197.9,155.4,198,155.2,198z"></path>
				<path class="st0" d="M156.8,199.7c0,0-0.1,0-0.1,0c-0.5-0.1-0.8-0.5-1-0.9c-0.3-0.7-0.3-1.5,0-2.2c0.1-0.2,0.3-0.3,0.5-0.2
				s0.3,0.3,0.2,0.5c-0.2,0.5-0.2,1.1,0,1.6c0.1,0.2,0.3,0.4,0.5,0.5c0.2,0,0.3,0.2,0.3,0.4C157.1,199.6,157,199.7,156.8,199.7
				L156.8,199.7z"></path>
				<path class="st0" d="M155,257.3c-2.1,0-4.2-0.2-6.3-0.6c-2.3-0.4-4.5-1.4-6.3-2.8c-1.6-1.3-2.9-2.9-3.9-4.7
				c-0.1-0.3,0-0.5,0.2-0.7c0.2-0.1,0.5,0,0.7,0.2c0,0,0,0,0,0c1,1.6,2.2,3.1,3.7,4.4c1.7,1.3,3.7,2.2,5.9,2.6
				c11.9,2.3,18.7-2.8,19.8-3.7c0.1-0.9,0.3-4.5-1.8-6.7c-1.4,0.3-6.9,1.4-11.5-1.7c-3.3-2.2-5.3-6.1-5.9-11.4
				c0-0.3,0.2-0.5,0.4-0.6c0.3,0,0.5,0.2,0.5,0.4c0,0,0,0,0,0c0.6,5.1,2.4,8.7,5.5,10.7c4.8,3.2,10.9,1.5,11,1.5
				c0.2-0.1,0.4,0,0.5,0.1c2.9,2.9,2.3,7.7,2.3,7.9c0,0.1-0.1,0.2-0.2,0.3C169.3,252.9,164.3,257.3,155,257.3z"></path>
			</g>
		</g>
		<path class="st2" d="M250.6,183.2h-61.9c-1.5,0-2.7,1.2-2.7,2.7v22.7c0,0.7-0.3,1.4-0.8,1.9l-3.2,3.2c-0.6,0.6-0.6,1.6,0,2.2
		c0.3,0.3,0.7,0.5,1.1,0.5h67.5c1.5,0,2.7-1.2,2.7-2.7v-27.8C253.3,184.4,252.1,183.2,250.6,183.2z"></path>
		<path class="st0" d="M250.6,216.8h-67.5c-1.1,0-2.1-0.9-2.1-2.1c0-0.6,0.2-1.1,0.6-1.5l3.2-3.2c0.4-0.4,0.6-1,0.6-1.6v-22.7
		c0-1.8,1.4-3.2,3.2-3.2h61.9c1.8,0,3.2,1.4,3.2,3.2v27.8C253.8,215.4,252.4,216.8,250.6,216.8z M188.7,183.7c-1.2,0-2.2,1-2.2,2.2
		v22.7c0,0.8-0.3,1.7-0.9,2.3l-3.2,3.2c-0.4,0.4-0.4,1.1,0,1.5c0.2,0.2,0.5,0.3,0.8,0.3h67.5c1.2,0,2.2-1,2.2-2.2v-27.8
		c0-1.2-1-2.2-2.2-2.2H188.7z"></path>
		<path class="st0" d="M210.9,191H192c-0.3,0-0.5-0.2-0.5-0.5c0-0.3,0.2-0.5,0.5-0.5h18.9c0.3,0,0.5,0.2,0.5,0.5
		C211.4,190.8,211.2,191,210.9,191C210.9,191,210.9,191,210.9,191z"></path>
		<path class="st0" d="M241.6,197.1H192c-0.3,0-0.5-0.2-0.5-0.5c0-0.3,0.2-0.5,0.5-0.5h49.6c0.3,0,0.5,0.2,0.5,0.5
		C242.1,196.9,241.9,197.2,241.6,197.1C241.6,197.2,241.6,197.2,241.6,197.1z"></path>
		<path class="st0" d="M241.6,203.4H192c-0.3,0-0.5-0.2-0.5-0.5c0-0.3,0.2-0.5,0.5-0.5h49.6c0.3,0,0.5,0.2,0.5,0.5
		C242.1,203.1,241.9,203.4,241.6,203.4C241.6,203.4,241.6,203.4,241.6,203.4z"></path>
		<path class="st0" d="M241.6,209.5H192c-0.3,0-0.5-0.2-0.5-0.5c0-0.3,0.2-0.5,0.5-0.5h49.6c0.3,0,0.5,0.2,0.5,0.5
		C242.1,209.3,241.9,209.5,241.6,209.5C241.6,209.5,241.6,209.5,241.6,209.5z"></path>
	</g>
	<g id="chat-2">
		<circle class="st2" cx="356.5" cy="221.9" r="27.5"></circle>
		<path class="st0" d="M356.5,249.8c-15.5,0-28-12.5-28-28s12.5-28,28-28s28,12.5,28,28S371.9,249.8,356.5,249.8L356.5,249.8z
		 M356.5,194.9c-14.9,0-27,12.1-27,27s12.1,27,27,27s27-12.1,27-27l0,0C383.5,207,371.4,194.9,356.5,194.9z"></path>
		<g>
			<defs>
				<path id="SVGID_3_" d="M377.9,205.3v-22.2h-42.8v22.2c-9.1,11.8-6.9,28.8,4.9,37.9c11.8,9.1,28.8,6.9,37.9-4.9
				C385.3,228.6,385.3,215,377.9,205.3z"></path>
			</defs>
			<clipPath id="SVGID_4_">
				<use xlink:href="#SVGID_3_" style="overflow: visible;"></use>
			</clipPath>
			<g class="st4">
				<path class="st2"
					d="M310.6,228.3c-1.6,1.5-3.4,2.8-5.4,3.8c-1-0.9-1.7-2.1-2.3-3.3c-0.5,0.1-1,0.1-1.5,0.1
				c-0.8,0.4-1.8,0.6-2.1,0c-0.5-1.1,0.8-1.4,1.1-1.5c-0.3,0.1-2.2,0.4-2.3-0.5s1.3-1.2,1.7-1.2c-0.4,0-2.1,0.2-2.1-0.7
				s2.4-0.9,2.4-0.9c-3.5-0.3-6.4-1.8-4.8-2c2.7-0.1,5.4-0.1,8.1,0c0,0-1.6-3.2-0.8-3.8s1.8,0.2,3.1,2.8S307.6,225.4,310.6,228.3z">
				</path>
				<path class="st0" d="M305.2,232.6c-0.1,0-0.2,0-0.3-0.1c-0.9-0.9-1.7-2-2.2-3.1c-0.4,0-0.8,0-1.1,0c-0.6,0.4-1.3,0.5-2,0.3
				c-0.3-0.1-0.6-0.3-0.7-0.6c-0.2-0.4-0.2-0.8,0-1.1c-0.3,0-0.5-0.1-0.8-0.3c-0.2-0.2-0.4-0.4-0.5-0.7c-0.1-0.4,0.1-0.7,0.3-1
				c-0.1-0.1-0.3-0.1-0.4-0.2c-0.2-0.2-0.4-0.5-0.4-0.8c0-0.3,0.1-0.6,0.4-0.8l0,0c-1.7-0.4-3.2-1.1-3.2-1.8c0-0.2,0.1-0.7,0.9-0.8
				c2.4-0.1,4.9-0.1,7.4,0c-0.6-1.3-1.1-3-0.4-3.7c0.3-0.3,0.7-0.4,1.1-0.3c0.9,0.2,1.8,1.2,2.8,3.3c0.2,0.3,0.3,0.7,0.5,1
				c1,2.4,2.5,4.5,4.4,6.3c0.1,0.1,0.2,0.2,0.1,0.4c0,0.1-0.1,0.3-0.2,0.4c-1.6,1.6-3.5,2.9-5.6,3.9
				C305.3,232.6,305.2,232.6,305.2,232.6z M302.9,228.3c0.2,0,0.4,0.1,0.5,0.3c0.5,1.1,1.1,2.1,1.9,2.9c1.7-0.9,3.2-1.9,4.6-3.2
				c-1.8-1.8-3.2-3.9-4.2-6.2c-0.2-0.3-0.3-0.6-0.5-1c-1.2-2.4-1.9-2.7-2.1-2.7c-0.1,0-0.2,0-0.2,0.1c-0.2,0.3,0.3,1.8,1,3.2
				c0.1,0.3,0,0.6-0.2,0.7c-0.1,0-0.2,0.1-0.2,0c-0.1,0-5.6-0.2-7.6-0.1c1.4,0.6,2.9,1,4.4,1.1c0.3,0,0.5,0.3,0.5,0.5
				c0,0.3-0.2,0.5-0.5,0.5c0,0,0,0,0,0c-0.6-0.1-1.3,0.1-1.8,0.4v0.2c0.5,0.2,1,0.3,1.5,0.1c0.3,0,0.5,0.1,0.6,0.4
				c0,0.3-0.1,0.5-0.4,0.6c-0.9,0.2-1.3,0.5-1.3,0.7c0.5,0.2,1.2,0.3,1.7,0.1c0.3-0.1,0.5,0.1,0.6,0.4c0.1,0.3-0.1,0.5-0.4,0.6
				c-0.3,0.1-0.6,0.2-0.8,0.5c-0.1,0.1-0.1,0.3,0,0.4c0,0,0,0.1,0.1,0.1c0.5,0,0.9-0.1,1.3-0.3c0.1-0.1,0.2-0.1,0.3-0.1
				c0.5,0.1,0.9,0,1.4-0.1L302.9,228.3z"></path>
				<path class="st0" d="M301.4,227.7c-0.1,0-0.1,0-0.2-0.1c-0.3-0.1-0.4-0.4-0.2-0.7c0.4-0.8,0.3-1,0.3-1s-0.2-0.1-1.2,0
				c-0.3,0-0.5-0.1-0.6-0.4c0,0,0,0,0,0c0-0.3,0.1-0.5,0.4-0.6c0.9-0.1,1.8-0.2,2.2,0.4s0.1,1.4-0.1,2
				C301.8,227.6,301.6,227.7,301.4,227.7z"></path>
				<path class="st0" d="M301.3,226.1c-0.1,0-0.2,0-0.3-0.1c-0.2-0.2-0.3-0.5-0.1-0.7c0.4-0.5,0.3-0.7,0.3-0.7
				c-0.3-0.2-0.7-0.2-1.1-0.1c-0.3,0-0.5-0.2-0.6-0.4c0-0.3,0.2-0.5,0.4-0.6c0.3,0,1.6-0.2,2.1,0.6c0.3,0.5,0.1,1.1-0.4,1.8
				C301.6,226,301.5,226.1,301.3,226.1z"></path>
				<path class="st0" d="M302.7,229.3c-0.4,0-0.7,0-1.1-0.1c-0.2,0-0.3-0.1-0.4-0.3c-0.1-0.1-0.1-0.3,0-0.4c0.2-0.3,0.2-0.4,0.2-0.5
				c-0.3-0.1-0.7-0.2-1-0.1c-0.3,0-0.5-0.2-0.6-0.4c0-0.3,0.2-0.5,0.4-0.6c0.2,0,1.5-0.2,2,0.5c0.2,0.3,0.2,0.6,0.1,0.9
				c1.1,0.1,2.6-0.3,4-2.8c0.1-0.2,0.4-0.3,0.7-0.2s0.3,0.4,0.2,0.7C306,228.2,304.5,229.3,302.7,229.3z"></path>
				<path class="st1" d="M354,222.9c0,0,19.4-1.1,29.1,9.8c12.5,14,12.5,31.2,2.1,31.3c0,0,4.8,7.1-2.7,10.9s-19.2,5.8-31.6,4
				s-13.3-2.4-12.4-11.4s1.9-20,1.9-20s-15.5,10.9-25,2.8s-12-16.5-12-16.5s-0.3-2.3,3.5-5s5.2-2.1,5.8-1.3s4.9,9.5,14.1,8.4
				S342.9,223.2,354,222.9z"></path>
				<path class="st0" d="M340.7,246.1L340.7,246.1c-0.3,0-0.5-0.3-0.5-0.6l1.7-14.2c0-0.3,0.3-0.5,0.5-0.4c0.3,0,0.5,0.3,0.4,0.6
				l-1.7,14.2C341.1,245.9,340.9,246.1,340.7,246.1z"></path>
				<path class="st0" d="M373.8,261.5c-0.2,0-0.4,0-0.5-0.1c-1.1-0.4-1.5-2.1-1.5-3.1c0-0.3,0.2-0.5,0.5-0.5l0,0
				c0.3,0,0.5,0.2,0.5,0.5c0,0,0,0,0,0c0,1,0.4,2,0.8,2.2s1-0.4,1.3-0.8c1.4-1.6,0.6-5.4,0.2-6.7c-0.1-0.2,0-0.4,0.2-0.6
				c0.2-0.1,0.4-0.1,0.6,0c1.9,1.4,3,1.4,3.1,1.2s0-1.3-1.7-3.1c-3.4-3.5-7.8-11.6-5.8-19.3c0.1-0.3,0.3-0.4,0.6-0.4
				s0.4,0.3,0.4,0.6c-1.9,7.4,2.2,15,5.5,18.4c1.9,1.9,2.5,3.6,1.8,4.4c-0.6,0.7-1.8,0.6-3.4-0.4c0.4,1.7,0.7,4.8-0.7,6.4
				C375.2,261,374.5,261.5,373.8,261.5z"></path>
				<path class="st0" d="M385.2,264.5L385.2,264.5c-8.8-0.2-12.3-3.2-12.4-3.3c-0.2-0.2-0.2-0.5,0-0.7c0.2-0.2,0.5-0.2,0.7,0l0,0
				c0,0,3.4,2.9,11.8,3.1c0.3,0,0.5,0.2,0.5,0.5S385.5,264.5,385.2,264.5L385.2,264.5z"></path>
				<path class="st0" d="M373.4,254.8c-0.1,0-0.2,0-0.2-0.1c-0.2-0.1-0.3-0.4-0.2-0.7c0,0,0,0,0,0c0.1-0.1,0.9-1.5,1.8-1.7
				c0.3-0.1,0.7,0,1,0.2c0.2,0.1,0.3,0.4,0.2,0.7c0,0,0,0,0,0c-0.1,0.2-0.5,0.3-0.7,0.1c-0.1,0-0.2,0-0.2,0c-0.5,0.1-1,0.9-1.2,1.2
				C373.7,254.7,373.6,254.8,373.4,254.8z"></path>
				<path class="st2" d="M344.2,208.1c0,0-3.9-1.7-2.9-8s6.3-7.1,9.6-5s7.6,0.7,10.5,2.4s2.2,5.3,2.2,5.3s7.2,0.1,4.5,8.5l-6,3.1
				l-8.9-1.6L344.2,208.1z"></path>
				<path class="st0" d="M362.1,214.8L362.1,214.8l-9-1.6H353l-9-4.6c-0.3-0.1-4.2-2.1-3.2-8.5c0.5-3.7,2.4-5.2,3.9-5.9
				c2.1-0.9,4.5-0.7,6.4,0.5c1.7,0.9,3.5,1.3,5.4,1.3c1.8,0,3.5,0.3,5.1,1.1c1.8,1.1,2.8,3.2,2.5,5.3c1.6,0.2,3.1,1,4.1,2.2
				c1.2,1.6,1.3,3.9,0.4,6.9c0,0.1-0.1,0.2-0.2,0.3l-6,3.1C362.3,214.8,362.2,214.9,362.1,214.8z M353.4,212.3l8.7,1.5l5.7-2.9
				c0.8-2.5,0.7-4.5-0.3-5.8c-1-1.1-2.4-1.8-3.9-1.9c-0.1,0-0.3-0.1-0.4-0.2c-0.1-0.1-0.1-0.3-0.1-0.4c0-0.1,0.6-3.3-2-4.8
				c-1.5-0.7-3.1-1-4.7-1c-2.1,0-4.1-0.4-5.9-1.4c-1.6-1-3.7-1.2-5.5-0.5c-1.3,0.6-2.9,1.9-3.3,5.1c-0.9,5.9,2.5,7.4,2.6,7.5l0,0
				L353.4,212.3z"></path>
				<path class="st2" d="M354.7,220.7v4.6c0,0,2.9,3,7.5-0.5V217L354.7,220.7z"></path>
				<path class="st0" d="M357.9,227c-1.3,0-2.6-0.5-3.6-1.4c-0.1-0.1-0.1-0.2-0.1-0.4v-4.6c0-0.2,0.1-0.4,0.3-0.4l7.5-3.7
				c0.1-0.1,0.3-0.1,0.5,0c0.1,0.1,0.2,0.3,0.2,0.4v7.8c0,0.2-0.1,0.3-0.2,0.4C361.2,226.3,359.6,226.9,357.9,227z M355.2,225
				c0.6,0.5,2.9,2.1,6.5-0.5v-6.7l-6.5,3.2V225z"></path>
				<path class="st2" d="M344.8,203.8c0,0-3.8,16.2,5.5,17.1s14.3-6.5,14.3-6.5c3.2,1,5.3-2.1,3.5-3.1s-3.2,1.4-3.2,1.4
				s-3.6-1.7-3.3-7.2c0,0-4.2,1.8-6.5-1.5c0,0-9.1,2.1-12-1.8"></path>
				<path class="st0" d="M351.9,221.4c-0.5,0-1,0-1.6-0.1c-1.9-0.1-3.7-1.1-4.8-2.7c-3.3-4.5-1.5-13.3-1.2-14.8
				c-0.6-0.3-1.1-0.8-1.5-1.4c-0.2-0.2-0.1-0.5,0.1-0.7c0,0,0,0,0,0c0.2-0.2,0.5-0.1,0.7,0.1c2.6,3.5,11.4,1.6,11.5,1.6
				c0.2,0,0.4,0,0.5,0.2c2.1,2.9,5.8,1.4,6,1.3c0.2-0.1,0.3,0,0.5,0.1c0.1,0.1,0.2,0.3,0.2,0.4c-0.2,4.1,1.8,5.9,2.7,6.5
				c0.5-0.7,1.1-1.2,1.9-1.4c0.6-0.2,1.2-0.1,1.7,0.3c0.8,0.5,1.2,1.5,0.7,2.4c-0.8,1.5-2.6,2.3-4.3,1.8
				C361.8,219,357,221.4,351.9,221.4z M345.2,204.3c-0.4,1.9-1.7,9.8,1.1,13.8c0.9,1.3,2.4,2.2,4,2.3c8.9,0.8,13.8-6.2,13.9-6.3
				c0.1-0.2,0.3-0.3,0.5-0.2c1.3,0.5,2.7,0,3.4-1.1c0.2-0.4,0.1-0.9-0.3-1.1c0,0,0,0,0,0c-0.3-0.2-0.7-0.3-1-0.1
				c-0.7,0.3-1.2,0.8-1.5,1.4c-0.1,0.2-0.4,0.3-0.6,0.2c-0.2-0.1-3.6-1.8-3.6-6.9c-1.3,0.4-4.3,0.8-6.2-1.6
				C353.6,204.8,348.7,205.7,345.2,204.3z"></path>
				<path class="st0" d="M366.1,213.6L366.1,213.6c-0.3,0-0.4-0.2-0.4-0.4c0.1-0.4,0.3-0.8,0.7-1.1c0.4-0.2,0.9-0.2,1.3-0.1
				c0.2,0.1,0.3,0.3,0.2,0.5c0,0,0,0,0,0c-0.1,0.2-0.3,0.3-0.5,0.2c-0.2-0.1-0.5-0.1-0.7,0c-0.2,0.1-0.3,0.3-0.4,0.6
				C366.5,213.5,366.3,213.6,366.1,213.6z"></path>
				<path class="st0" d="M354.6,208.3c0.5-0.4,1.2-0.7,1.8-0.7c0.7-0.1,1.3,0,1.9,0.3c0.1,0.1,0.2,0.3,0.1,0.4c0,0.1-0.1,0.1-0.2,0.2
				l0,0c-0.3,0-0.6,0-0.9,0.1s-0.5,0-0.8,0.1c-0.5,0-1.1,0.2-1.6,0.2l0,0c-0.2,0-0.3-0.1-0.3-0.2
				C354.5,208.5,354.5,208.4,354.6,208.3z"></path>
				<path class="st0" d="M345.8,208.2c0.7-0.3,1.4-0.4,2.1-0.4c0.4,0,0.7,0,1.1,0.1c0.3,0.1,0.7,0.2,1,0.3c0.1,0.1,0.2,0.2,0.1,0.4
				c0,0.1-0.1,0.2-0.2,0.2l0,0c-0.7,0-1.3,0-2,0c-0.6,0-1.3,0-2,0l0,0c-0.2,0-0.3-0.1-0.3-0.3C345.7,208.3,345.7,208.2,345.8,208.2z
				"></path>
				<path class="st0" d="M350,214.7c-0.6,0-1.1-0.4-1.3-1c-0.1-0.4-0.1-0.7,0.1-1.1c0.3-0.4,0.8-0.7,1.3-0.8
				c-0.1-1.1-0.3-2.2-0.6-3.3c-0.1-0.2,0-0.4,0.2-0.5c0.2-0.1,0.4,0,0.5,0.2c0,0,0,0.1,0,0.1c0.3,1.2,0.5,2.5,0.6,3.7
				c0,0.2-0.1,0.4-0.3,0.4c-0.4,0-0.8,0.2-1.1,0.6c-0.1,0.1-0.1,0.3,0,0.4c0,0.3,0.3,0.5,0.6,0.5c0,0,0.1,0,0.1,0
				c0.5-0.1,0.8-0.5,0.8-1c0-0.2,0.1-0.4,0.3-0.4c0.2,0,0.4,0.1,0.4,0.3c0,0,0,0,0,0c0.1,0.9-0.5,1.7-1.4,1.9L350,214.7z">
				</path>
				<path class="st0" d="M357,210.8c0,0.6-0.4,1.1-0.8,1.1s-0.8-0.5-0.8-1.1c0-0.2,0-0.4,0.1-0.5l0.7,0.4l-0.4-0.9
				c0.1-0.1,0.2-0.1,0.3-0.1C356.7,209.7,357,210.2,357,210.8z"></path>
				<path class="st0" d="M348.6,210.8c0,0.6-0.4,1.1-0.8,1.1s-0.8-0.5-0.8-1.1c0-0.2,0-0.4,0.1-0.5l0.7,0.4l-0.3-0.9
				c0.1-0.1,0.2-0.1,0.3-0.1C348.3,209.7,348.6,210.2,348.6,210.8z"></path>
				<path class="st0" d="M353.2,217.5c-0.6,0-1.3-0.3-1.8-0.7c-0.2-0.2-0.3-0.5-0.1-0.7c0.2-0.2,0.5-0.3,0.7-0.1c0,0,0,0,0,0
				c0.4,0.4,1,0.5,1.5,0.4c0.4-0.2,0.6-0.5,0.7-0.9c0.1-0.3,0.3-0.5,0.6-0.4c0.3,0.1,0.5,0.3,0.4,0.6l0,0c-0.1,0.7-0.6,1.4-1.3,1.6
				C353.7,217.5,353.4,217.5,353.2,217.5z"></path>
			</g>
		</g>
		<path class="st2" d="M268,200.9h61.9c1.5,0,2.7,1.2,2.7,2.7v22.7c0,0.7,0.3,1.4,0.8,1.9l3.2,3.2c0.6,0.6,0.6,1.6,0,2.2
		c-0.3,0.3-0.7,0.5-1.1,0.5H268c-1.5,0-2.7-1.2-2.7-2.7v-27.8C265.3,202.1,266.5,200.9,268,200.9z"></path>
		<path class="st0" d="M335.5,234.5H268c-1.7,0-3.2-1.4-3.2-3.2v-27.8c0-1.8,1.4-3.2,3.2-3.2l0,0h61.9c1.8,0,3.2,1.4,3.2,3.2
		c0,0,0,0,0,0v22.7c0,0.6,0.2,1.1,0.6,1.6l3.3,3.2c0.8,0.8,0.8,2.1,0,2.9C336.6,234.3,336.1,234.6,335.5,234.5L335.5,234.5z
		 M268,201.4c-1.2,0-2.2,1-2.2,2.2c0,0,0,0,0,0v27.8c0,1.2,1,2.2,2.2,2.2h67.5c0.6,0,1.1-0.5,1.1-1.1c0-0.3-0.1-0.6-0.3-0.8
		l-3.2-3.2c-0.6-0.6-1-1.4-1-2.3v-22.7c0-1.2-1-2.2-2.2-2.2l0,0H268z"></path>
		<path class="st0" d="M290.7,208.7h-18.9c-0.3,0-0.5-0.2-0.5-0.5s0.2-0.5,0.5-0.5h18.9c0.3,0,0.5,0.2,0.5,0.5S291,208.7,290.7,208.7
		z"></path>
		<path class="st0" d="M321.4,214.9h-49.6c-0.3,0-0.5-0.2-0.5-0.5c0-0.3,0.2-0.5,0.5-0.5h49.6c0.3,0,0.5,0.2,0.5,0.5
		C321.9,214.7,321.7,214.9,321.4,214.9z"></path>
		<path class="st0" d="M321.4,221.1h-49.6c-0.3,0-0.5-0.2-0.5-0.5c0-0.3,0.2-0.5,0.5-0.5h49.6c0.3,0,0.5,0.2,0.5,0.5
		C321.9,220.8,321.7,221.1,321.4,221.1z"></path>
		<path class="st0" d="M321.4,227.3h-49.6c-0.3,0-0.5-0.2-0.5-0.5c0-0.3,0.2-0.5,0.5-0.5h49.6c0.3,0,0.5,0.2,0.5,0.5
		C321.9,227,321.7,227.3,321.4,227.3z"></path>
	</g>
	<g id="calendar">
		<path class="st1" d="M43.2,217.6h85.2c2.1,0,4,1.3,4.7,3.3l13.5,52.8c0.5,1.8-0.9,3.3-3,3.3H58.3c-2.1,0-4-1.3-4.7-3.3l-13.4-52.8
		C39.7,219.1,41,217.6,43.2,217.6z"></path>
		<path class="st0" d="M143.6,277.5H58.3c-2.3,0-4.4-1.5-5.2-3.7l-13.4-52.8c-0.3-0.9-0.1-1.9,0.5-2.6c0.7-0.9,1.9-1.4,3-1.3h85.2
		c2.4,0,4.5,1.5,5.2,3.7l13.4,52.8c0.3,0.9,0.1,1.9-0.5,2.6C145.8,277.1,144.7,277.6,143.6,277.5z M43.2,218.1
		c-0.9-0.1-1.7,0.3-2.2,0.9c-0.4,0.5-0.5,1.1-0.3,1.8l13.5,52.8c0.6,1.8,2.4,3,4.2,2.9h85.2c0.9,0,1.7-0.3,2.2-0.9
		c0.4-0.5,0.5-1.1,0.3-1.8l-13.4-52.8c-0.6-1.8-2.4-3-4.2-2.9L43.2,218.1z"></path>
		<path class="st1" d="M40.2,217.6h85.2c2.1,0,4,1.3,4.7,3.3l13.5,52.8c0.5,1.8-0.9,3.3-3,3.3H55.3c-2.1,0-4-1.3-4.7-3.3l-13.5-52.8
		C36.7,219.1,38,217.6,40.2,217.6z"></path>
		<path class="st0" d="M140.6,277.5H55.3c-2.3,0-4.4-1.5-5.2-3.7l-13.4-52.8c-0.3-0.9-0.1-1.9,0.5-2.6c0.7-0.9,1.9-1.4,3-1.3h85.2
		c2.4,0,4.5,1.5,5.2,3.7l13.4,52.8c0.3,0.9,0.1,1.9-0.5,2.6C142.8,277.1,141.7,277.6,140.6,277.5z M40.2,218.1
		c-0.9,0-1.7,0.3-2.2,0.9c-0.4,0.5-0.5,1.1-0.3,1.8l13.4,52.8c0.6,1.8,2.4,3,4.2,2.9h85.2c0.9,0,1.7-0.3,2.2-0.9
		c0.4-0.5,0.5-1.1,0.3-1.8l-13.4-52.8c-0.6-1.8-2.4-3-4.2-2.9L40.2,218.1z"></path>
		<path class="st2" d="M42.4,217.6h85.2c1.8-0.1,3.3,1.3,3.3,3.1c0,0.3,0,0.5-0.1,0.8l-10.2,62c-0.4,2.2-2.3,3.8-4.5,3.9H30.9
		c-1.8,0.1-3.3-1.3-3.3-3.1c0-0.3,0-0.5,0.1-0.8l10.2-62C38.3,219.3,40.1,217.7,42.4,217.6z"></path>
		<path class="st0" d="M116.1,287.9H30.9c-1.1,0-2.2-0.5-2.9-1.3c-0.7-0.9-1-2-0.8-3.2l10.2-62c0.5-2.4,2.5-4.2,5-4.3h85.3
		c1.1,0,2.2,0.5,2.9,1.3c0.7,0.9,1,2,0.8,3.2l-10.2,62C120.7,286,118.6,287.8,116.1,287.9z M42.4,218.1c-2,0.1-3.6,1.5-4,3.5
		l-10.2,62c-0.2,0.8,0.1,1.7,0.6,2.4c0.5,0.6,1.3,1,2.2,0.9h85.2c2-0.1,3.6-1.5,4-3.5l10.2-62c0.2-0.8,0-1.7-0.6-2.4
		c-0.5-0.6-1.3-1-2.2-0.9H42.4z"></path>
		<path class="st2" d="M40.2,217.6h85.2c1.8-0.1,3.3,1.3,3.3,3.1c0,0.3,0,0.5-0.1,0.8l-10.2,62c-0.4,2.2-2.3,3.8-4.5,3.9H28.7
		c-1.8,0.1-3.3-1.3-3.3-3.1c0-0.3,0-0.5,0.1-0.8l10.2-62C36.1,219.3,38,217.7,40.2,217.6z"></path>
		<path class="st0" d="M114,287.9H28.7c-1.1,0-2.2-0.4-2.9-1.3c-0.7-0.9-1-2.1-0.8-3.2l10.2-62c0.5-2.4,2.5-4.2,5-4.3h85.2
		c1.1,0,2.2,0.5,2.9,1.3c0.7,0.9,1,2,0.8,3.2l-10.2,62C118.5,286,116.5,287.8,114,287.9z M40.2,218.1c-2,0.1-3.6,1.5-4,3.5l-10.2,62
		c-0.2,0.8,0.1,1.7,0.6,2.4c0.5,0.6,1.3,1,2.2,0.9H114c2-0.1,3.6-1.5,4-3.5l10.2-62c0.2-0.8,0-1.7-0.6-2.4c-0.5-0.6-1.3-1-2.2-0.9
		L40.2,218.1z"></path>
		<path class="st1" d="M52.9,241.6h-11c-0.6,0-1.1-0.4-1.1-1c0-0.1,0-0.2,0-0.3L42,233c0.1-0.7,0.8-1.3,1.5-1.3h11
		c0.6,0,1.1,0.4,1.1,1c0,0.1,0,0.2,0,0.3l-1.2,7.4C54.3,241.1,53.7,241.6,52.9,241.6z"></path>
		<path class="st1" d="M73.9,241.6h-11c-0.6,0-1.1-0.5-1.1-1c0-0.1,0-0.2,0-0.3L63,233c0.1-0.7,0.8-1.3,1.5-1.3h11
		c0.6,0,1.1,0.4,1.1,1c0,0.1,0,0.2,0,0.3l-1.2,7.4C75.3,241.1,74.6,241.6,73.9,241.6z"></path>
		<path class="st1" d="M94.8,241.6h-11c-0.6,0-1.1-0.4-1.1-1c0-0.1,0-0.2,0-0.3L84,233c0.1-0.7,0.8-1.3,1.5-1.3h11
		c0.6,0,1.1,0.4,1.1,1c0,0.1,0,0.2,0,0.3l-1.2,7.4C96.2,241.1,95.6,241.6,94.8,241.6z"></path>
		<path class="st1" d="M115.8,241.6h-11c-0.6,0-1.1-0.4-1.1-1c0-0.1,0-0.2,0-0.3l1.2-7.4c0.1-0.7,0.8-1.3,1.5-1.3h11
		c0.6,0,1.1,0.5,1.1,1c0,0.1,0,0.2,0,0.2l-1.2,7.4C117.2,241.1,116.5,241.6,115.8,241.6z"></path>
		<path class="st1" d="M50.8,254.5h-11c-0.6,0-1.1-0.5-1.1-1c0-0.1,0-0.2,0-0.2l1.3-7.4c0.1-0.7,0.8-1.3,1.5-1.3h11
		c0.6,0,1.1,0.4,1.1,1c0,0.1,0,0.2,0,0.3l-1.2,7.4C52.2,253.9,51.6,254.5,50.8,254.5z"></path>
		<path class="st1" d="M71.8,254.5h-11c-0.6,0-1.1-0.4-1.1-1c0-0.1,0-0.2,0-0.3l1.2-7.4c0.1-0.7,0.8-1.3,1.5-1.3h11
		c0.6,0,1.1,0.4,1.1,1c0,0.1,0,0.2,0,0.3l-1.2,7.4C73.2,253.9,72.5,254.4,71.8,254.5z"></path>
		<path class="st1" d="M92.7,254.5h-11c-0.6,0-1.1-0.4-1.1-1c0-0.1,0-0.2,0-0.3l1.2-7.4c0.1-0.7,0.8-1.3,1.5-1.3h11
		c0.6,0,1.1,0.5,1.1,1c0,0.1,0,0.2,0,0.3l-1.2,7.4C94.1,253.9,93.5,254.4,92.7,254.5z"></path>
		<path class="st1" d="M113.7,254.5h-11c-0.6,0-1.1-0.4-1.1-1c0-0.1,0-0.2,0-0.3l1.2-7.4c0.1-0.7,0.8-1.3,1.5-1.3h11
		c0.6,0,1.1,0.4,1.1,1c0,0.1,0,0.2,0,0.3l-1.2,7.4C115.1,253.9,114.4,254.4,113.7,254.5z"></path>
		<path class="st1" d="M48.7,267.3h-11c-0.6,0-1.1-0.4-1.1-1c0-0.1,0-0.2,0-0.3l1.2-7.4c0.1-0.7,0.8-1.3,1.5-1.3h11
		c0.6,0,1.1,0.5,1.1,1c0,0.1,0,0.2,0,0.2l-1.2,7.4C50.1,266.7,49.5,267.3,48.7,267.3z"></path>
		<path class="st1" d="M69.7,267.3h-11c-0.6,0-1.1-0.4-1.1-1c0-0.1,0-0.2,0-0.3l1.2-7.4c0.1-0.7,0.8-1.3,1.5-1.3h11
		c0.6,0,1.1,0.4,1.1,1c0,0.1,0,0.2,0,0.3l-1.2,7.4C71.1,266.7,70.4,267.3,69.7,267.3z"></path>
		<path class="st1" d="M90.6,267.3h-11c-0.6,0-1.1-0.5-1.1-1c0-0.1,0-0.2,0-0.3l1.2-7.4c0.1-0.7,0.8-1.3,1.5-1.3h11
		c0.6,0,1.1,0.4,1.1,1c0,0.1,0,0.2,0,0.3l-1.2,7.4C92,266.7,91.4,267.3,90.6,267.3z"></path>
		<path class="st1" d="M111.6,267.3h-11c-0.6,0-1.1-0.4-1.1-1c0-0.1,0-0.2,0-0.3l1.2-7.4c0.1-0.7,0.8-1.3,1.5-1.3h11
		c0.6,0,1.1,0.4,1.1,1c0,0.1,0,0.2,0,0.3l-1.2,7.4C113,266.7,112.3,267.3,111.6,267.3z"></path>
		<path class="st1" d="M46.6,280.1h-11c-0.6,0-1.1-0.4-1.1-1c0-0.1,0-0.2,0-0.3l1.2-7.4c0.1-0.7,0.8-1.3,1.5-1.3h11
		c0.6,0,1.1,0.4,1.1,1c0,0.1,0,0.2,0,0.3l-1.2,7.4C48,279.6,47.4,280.1,46.6,280.1z"></path>
		<path class="st1" d="M67.6,280.1h-11c-0.6,0-1.1-0.4-1.1-1c0-0.1,0-0.2,0-0.3l1.2-7.4c0.1-0.7,0.8-1.3,1.5-1.3h11
		c0.6,0,1.1,0.4,1.1,1c0,0.1,0,0.2,0,0.3l-1.2,7.4C68.9,279.6,68.3,280.1,67.6,280.1z"></path>
		<path class="st1" d="M88.5,280.1h-11c-0.6,0-1.1-0.4-1.1-1c0-0.1,0-0.2,0-0.3l1.2-7.4c0.1-0.7,0.8-1.3,1.5-1.3h11
		c0.6,0,1.1,0.4,1.1,1c0,0.1,0,0.2,0,0.3l-1.2,7.4C89.9,279.5,89.3,280.1,88.5,280.1z"></path>
		<path class="st1" d="M109.5,280.1h-11c-0.6,0-1.1-0.4-1.1-1c0-0.1,0-0.2,0-0.3l1.2-7.4c0.1-0.7,0.8-1.3,1.5-1.3h11
		c0.6,0,1.1,0.5,1.1,1c0,0.1,0,0.2,0,0.3l-1.2,7.4C110.9,279.6,110.2,280.1,109.5,280.1z"></path>
		<ellipse class="st0" transform="matrix(0.7355 -0.6775 0.6775 0.7355 -138.0531 93.5688)" cx="50.8" cy="223.6"
			rx="1.9" ry="1.6"></ellipse>
		<path class="st1"
			d="M56.5,217.6h-2.1c0.5-2.8-0.5-5.1-2.2-5.8c0.4-0.1,0.7-0.2,1.1-0.2C55.6,211.7,57.1,214.3,56.5,217.6z">
		</path>
		<path class="st0" d="M56.5,218.1h-2.1c-0.1,0-0.3-0.1-0.4-0.2c-0.1-0.1-0.1-0.3-0.1-0.4c0.4-2.4-0.4-4.6-1.8-5.2
		c-0.2-0.1-0.3-0.3-0.3-0.5c0-0.2,0.1-0.4,0.3-0.5c1.4-0.5,2.9-0.1,3.8,1c1.1,1.5,1.5,3.5,1.1,5.3C57,217.9,56.8,218.1,56.5,218.1z
		 M55,217.1h1.1c0.2-1.4-0.1-2.9-1-4.1c-0.4-0.5-0.9-0.8-1.6-0.9C54.7,213.5,55.2,215.3,55,217.1L55,217.1z"></path>
		<path class="st2" d="M51.4,223.6h-2.1c-2.3,0-3.7-2.7-3.2-6s2.8-6,5.2-6h2.1c-0.4,0-0.7,0.1-1.1,0.2c-1.9,0.7-3.6,3-4.1,5.8
		C47.6,220.9,49.1,223.6,51.4,223.6z"></path>
		<path class="st0" d="M51.4,224.1h-2.1c-1,0-1.9-0.4-2.6-1.2c-1.1-1.5-1.5-3.5-1.1-5.3c0.6-3.6,3.1-6.4,5.6-6.4h2.1
		c0.3,0,0.5,0.2,0.5,0.5s-0.2,0.5-0.5,0.5c-0.3,0-0.6,0.1-0.9,0.2c-1.8,0.6-3.3,2.9-3.7,5.4c-0.4,1.6,0,3.2,0.9,4.5
		c0.4,0.5,1.1,0.9,1.8,0.9c0.3,0,0.5,0.2,0.5,0.5S51.6,224.1,51.4,224.1L51.4,224.1z M50.6,212.2c-1.8,0.4-3.6,2.7-4,5.5
		c-0.4,1.6,0,3.2,0.9,4.5c0.4,0.5,0.9,0.8,1.6,0.9c-0.1-0.1-0.1-0.1-0.2-0.2c-1.1-1.5-1.5-3.5-1.1-5.3C48,215.5,49,213.6,50.6,212.2
		z"></path>
		<ellipse class="st0" transform="matrix(0.7355 -0.6775 0.6775 0.7355 -135.6678 99.67)" cx="59.8" cy="223.6"
			rx="1.9" ry="1.6"></ellipse>
		<path class="st1"
			d="M65.5,217.6h-2.1c0.5-2.8-0.5-5.1-2.2-5.8c0.4-0.1,0.7-0.2,1.1-0.2C64.6,211.7,66.1,214.3,65.5,217.6z">
		</path>
		<path class="st0" d="M65.5,218.1h-2.1c-0.2,0-0.3-0.1-0.4-0.2c-0.1-0.1-0.1-0.3-0.1-0.4c0.4-2.5-0.3-4.6-1.8-5.2
		c-0.2-0.1-0.3-0.3-0.3-0.5c0-0.2,0.1-0.4,0.3-0.5c1.4-0.5,2.9-0.1,3.8,1c1.1,1.5,1.5,3.5,1.1,5.3C66,217.9,65.8,218.1,65.5,218.1z
		 M64,217.1h1.1c0.2-1.4-0.1-2.9-0.9-4.1c-0.4-0.5-1-0.8-1.6-0.9C63.7,213.5,64.3,215.3,64,217.1L64,217.1z"></path>
		<path class="st2" d="M60.4,223.6h-2.1c-2.3,0-3.7-2.7-3.2-6s2.8-6,5.1-6h2.1c-0.4,0-0.7,0.1-1.1,0.2c-1.9,0.7-3.6,3-4.1,5.8
		C56.6,220.9,58.1,223.6,60.4,223.6z"></path>
		<path class="st0" d="M60.4,224.1h-2.1c-1,0-1.9-0.4-2.6-1.2c-1.1-1.5-1.5-3.5-1.1-5.3c0.6-3.6,3.1-6.4,5.6-6.4h2.1
		c0.3,0,0.5,0.2,0.5,0.5s-0.2,0.5-0.5,0.5c-0.3,0-0.6,0.1-0.9,0.2c-1.8,0.6-3.3,2.8-3.7,5.4c-0.4,1.6,0,3.2,0.9,4.5
		c0.4,0.5,1.1,0.9,1.8,0.9c0.3,0,0.5,0.2,0.5,0.5C60.9,223.9,60.7,224.1,60.4,224.1z M59.6,212.2c-1.8,0.4-3.6,2.7-4,5.5
		c-0.4,1.6,0,3.2,0.9,4.5c0.4,0.5,0.9,0.8,1.6,0.9l-0.2-0.2c-1.1-1.5-1.5-3.5-1.1-5.3C57,215.5,58,213.6,59.6,212.2z">
		</path>
		<ellipse class="st0" transform="matrix(0.7355 -0.6775 0.6775 0.7355 -133.2959 105.7706)" cx="68.8" cy="223.6"
			rx="1.9" ry="1.6"></ellipse>
		<path class="st1"
			d="M74.5,217.6h-2.1c0.4-2.8-0.5-5.1-2.2-5.8c0.4-0.1,0.7-0.2,1.1-0.2C73.6,211.7,75.1,214.3,74.5,217.6z">
		</path>
		<path class="st0" d="M74.5,218.1h-2.1c-0.1,0-0.3-0.1-0.4-0.2c-0.1-0.1-0.1-0.3-0.1-0.4c0.4-2.4-0.4-4.6-1.8-5.2
		c-0.3-0.1-0.4-0.4-0.3-0.6c0.1-0.1,0.2-0.2,0.3-0.3c1.4-0.5,2.9-0.1,3.8,1c1.1,1.5,1.5,3.5,1.1,5.3C75,217.9,74.8,218.1,74.5,218.1
		z M73,217.1h1.1c0.2-1.4-0.1-2.9-0.9-4.1c-0.4-0.5-0.9-0.8-1.6-0.9C72.8,213.5,73.3,215.3,73,217.1L73,217.1z"></path>
		<path class="st2" d="M69.4,223.6h-2.1c-2.3,0-3.7-2.7-3.2-6c0.5-3.3,2.8-6,5.2-6h2.1c-0.4,0-0.7,0.1-1.1,0.2
		c-1.9,0.7-3.6,3-4.1,5.8C65.7,220.9,67.1,223.6,69.4,223.6z"></path>
		<path class="st0" d="M69.4,224.1h-2.1c-1,0-1.9-0.4-2.6-1.2c-1.1-1.5-1.5-3.5-1.1-5.3c0.6-3.6,3.1-6.4,5.6-6.4h2.1
		c0.3,0,0.5,0.2,0.5,0.5s-0.2,0.5-0.5,0.5c-0.3,0-0.6,0.1-0.9,0.2c-1.8,0.6-3.3,2.9-3.7,5.4c-0.4,1.6,0,3.2,0.9,4.5
		c0.4,0.5,1.1,0.9,1.8,0.9c0.3,0,0.5,0.2,0.5,0.5S69.7,224.1,69.4,224.1z M68.6,212.2c-1.8,0.4-3.6,2.7-4,5.5
		c-0.4,1.6,0,3.2,0.9,4.5c0.4,0.5,0.9,0.8,1.6,0.9c-0.1-0.1-0.1-0.1-0.2-0.2c-1.1-1.5-1.5-3.5-1.1-5.3C66,215.5,67,213.6,68.6,212.2
		z"></path>
		<ellipse class="st0" transform="matrix(0.7355 -0.6775 0.6775 0.7355 -130.9106 111.8717)" cx="77.8" cy="223.6"
			rx="1.9" ry="1.6"></ellipse>
		<path class="st1"
			d="M83.5,217.6h-2.1c0.4-2.8-0.5-5.1-2.2-5.8c0.4-0.1,0.7-0.2,1.1-0.2C82.7,211.7,84.1,214.3,83.5,217.6z">
		</path>
		<path class="st0" d="M83.5,218.1h-2.1c-0.1,0-0.3-0.1-0.4-0.2c-0.1-0.1-0.1-0.3-0.1-0.4c0.4-2.4-0.4-4.6-1.8-5.2
		c-0.2-0.1-0.3-0.3-0.3-0.5c0-0.2,0.1-0.4,0.3-0.5c1.4-0.5,2.9-0.1,3.8,1c1.1,1.5,1.5,3.5,1.1,5.3C84,217.9,83.8,218.1,83.5,218.1z
		 M82,217.1h1.1c0.2-1.4-0.1-2.9-0.9-4.1c-0.4-0.5-1-0.8-1.6-0.9C81.8,213.5,82.3,215.3,82,217.1L82,217.1z"></path>
		<path class="st2" d="M78.4,223.6h-2.1c-2.3,0-3.7-2.7-3.2-6s2.8-6,5.1-6h2.1c-0.4,0-0.7,0.1-1.1,0.2c-1.9,0.7-3.6,3-4.1,5.8
		C74.7,220.9,76.1,223.6,78.4,223.6z"></path>
		<path class="st0" d="M78.4,224.1h-2.1c-1,0-1.9-0.4-2.6-1.2c-1.1-1.5-1.5-3.5-1.1-5.3c0.6-3.6,3.1-6.4,5.6-6.4h2.1
		c0.3,0,0.5,0.2,0.5,0.5c0,0.3-0.2,0.5-0.5,0.5c-0.3,0-0.6,0.1-0.9,0.2c-1.8,0.6-3.3,2.9-3.7,5.4c-0.4,1.6,0,3.2,0.9,4.5
		c0.4,0.5,1.1,0.9,1.8,0.9c0.3,0,0.5,0.2,0.5,0.5C78.9,223.9,78.7,224.1,78.4,224.1z M77.6,212.2c-1.8,0.4-3.6,2.7-4,5.5
		c-0.4,1.6,0,3.2,0.9,4.5c0.4,0.5,0.9,0.8,1.6,0.9l-0.2-0.2c-1.1-1.5-1.5-3.5-1.1-5.3C75,215.5,76.1,213.6,77.6,212.2z">
		</path>
		<ellipse class="st0" transform="matrix(0.7355 -0.6775 0.6775 0.7355 -128.5292 117.9765)" cx="86.8" cy="223.6"
			rx="1.9" ry="1.6"></ellipse>
		<path class="st1"
			d="M92.5,217.6h-2.1c0.4-2.8-0.5-5.1-2.2-5.8c0.4-0.1,0.7-0.2,1.1-0.2C91.7,211.7,93.1,214.3,92.5,217.6z">
		</path>
		<path class="st0" d="M92.5,218.1h-2.1c-0.1,0-0.3-0.1-0.4-0.2c-0.1-0.1-0.1-0.3-0.1-0.4c0.4-2.5-0.4-4.6-1.8-5.2
		c-0.3-0.1-0.4-0.4-0.3-0.6c0.1-0.1,0.2-0.2,0.3-0.3c1.4-0.5,2.9-0.1,3.8,1c1.1,1.5,1.5,3.5,1.1,5.3C93,217.9,92.8,218.1,92.5,218.1
		z M91,217.1h1.1c0.2-1.4-0.1-2.9-1-4.1c-0.4-0.5-0.9-0.8-1.6-0.9C90.7,213.5,91.3,215.3,91,217.1L91,217.1z"></path>
		<path class="st2" d="M87.4,223.6h-2.1c-2.3,0-3.7-2.7-3.2-6s2.8-6,5.2-6h2.1c-0.4,0-0.7,0.1-1.1,0.2c-1.9,0.7-3.6,3-4.1,5.8
		C83.7,220.9,85.1,223.6,87.4,223.6z"></path>
		<path class="st0" d="M87.4,224.1h-2.1c-1,0-1.9-0.4-2.6-1.2c-1.1-1.5-1.5-3.5-1.1-5.3c0.6-3.6,3.1-6.4,5.6-6.4h2.1
		c0.3,0,0.5,0.2,0.5,0.5s-0.2,0.5-0.5,0.5c-0.3,0-0.6,0.1-0.9,0.2c-1.8,0.6-3.3,2.8-3.7,5.4c-0.4,1.6,0,3.2,0.9,4.5
		c0.4,0.5,1.1,0.9,1.8,0.9c0.3,0,0.5,0.2,0.5,0.5S87.7,224.1,87.4,224.1z M86.6,212.2c-1.8,0.4-3.6,2.7-4,5.5
		c-0.4,1.6,0,3.2,0.9,4.5c0.4,0.5,0.9,0.8,1.6,0.9c-0.1-0.1-0.1-0.1-0.2-0.2c-1.1-1.5-1.5-3.5-1.1-5.3
		C84,215.5,85.1,213.6,86.6,212.2z"></path>
		<ellipse class="st0" transform="matrix(0.7355 -0.6775 0.6775 0.7355 -126.1439 124.0777)" cx="95.8" cy="223.6"
			rx="1.9" ry="1.6"></ellipse>
		<path class="st1"
			d="M101.6,217.6h-2.1c0.4-2.8-0.5-5.1-2.2-5.8c0.4-0.1,0.7-0.2,1.1-0.2C100.7,211.7,102.1,214.3,101.6,217.6z">
		</path>
		<path class="st0" d="M101.6,218.1h-2.1c-0.1,0-0.3-0.1-0.4-0.2c-0.1-0.1-0.1-0.3-0.1-0.4c0.4-2.4-0.4-4.6-1.8-5.2
		c-0.2-0.1-0.3-0.3-0.3-0.5c0-0.2,0.1-0.4,0.3-0.5c1.4-0.5,2.9-0.1,3.8,1c1.1,1.5,1.5,3.5,1.1,5.3
		C102,217.9,101.8,218.1,101.6,218.1z M100,217.1h1.1c0.2-1.4-0.1-2.9-0.9-4.1c-0.4-0.5-1-0.8-1.6-0.9
		C99.8,213.5,100.3,215.3,100,217.1L100,217.1z"></path>
		<path class="st2" d="M96.4,223.6h-2.1c-2.3,0-3.7-2.7-3.2-6s2.8-6,5.1-6h2.1c-0.4,0-0.7,0.1-1.1,0.2c-1.9,0.7-3.6,3-4.1,5.8
		C92.7,220.9,94.1,223.6,96.4,223.6z"></path>
		<path class="st0" d="M96.4,224.1h-2.1c-1,0-1.9-0.4-2.6-1.2c-1.1-1.5-1.5-3.5-1.1-5.3c0.6-3.6,3.1-6.4,5.6-6.4h2.1
		c0.3,0,0.5,0.2,0.5,0.5c0,0.3-0.2,0.5-0.5,0.5c-0.3,0-0.6,0.1-0.9,0.2c-1.8,0.6-3.3,2.9-3.7,5.4c-0.4,1.6,0,3.2,0.9,4.5
		c0.4,0.5,1.1,0.9,1.8,0.9c0.3,0,0.5,0.2,0.5,0.5C96.9,223.9,96.7,224.1,96.4,224.1z M95.6,212.2c-1.8,0.4-3.6,2.7-4.1,5.5
		c-0.4,1.6,0,3.2,0.9,4.5c0.4,0.5,0.9,0.8,1.6,0.9l-0.2-0.2c-1.1-1.5-1.5-3.5-1.1-5.3C93,215.5,94,213.6,95.6,212.2z">
		</path>
		<ellipse class="st0" transform="matrix(0.7355 -0.6775 0.6775 0.7355 -123.7652 130.1757)" cx="104.8" cy="223.6"
			rx="1.9" ry="1.6"></ellipse>
		<path class="st1"
			d="M110.6,217.6h-2.1c0.5-2.8-0.5-5.1-2.2-5.8c0.4-0.1,0.7-0.2,1.1-0.2C109.7,211.7,111.1,214.3,110.6,217.6z">
		</path>
		<path class="st0" d="M110.6,218.1h-2.1c-0.1,0-0.3-0.1-0.4-0.2c-0.1-0.1-0.1-0.3-0.1-0.4c0.4-2.5-0.4-4.6-1.8-5.2
		c-0.3-0.1-0.4-0.4-0.3-0.6c0.1-0.1,0.2-0.2,0.3-0.3c1.4-0.5,2.9-0.1,3.8,1c1.1,1.5,1.5,3.5,1.1,5.3
		C111,217.9,110.8,218.1,110.6,218.1z M109,217.1h1.1c0.2-1.4-0.1-2.9-1-4.1c-0.4-0.5-0.9-0.8-1.6-0.9
		C108.7,213.5,109.3,215.3,109,217.1L109,217.1z"></path>
		<path class="st2" d="M105.4,223.6h-2.1c-2.3,0-3.7-2.7-3.2-6s2.8-6,5.2-6h2.1c-0.4,0-0.7,0.1-1.1,0.2c-1.9,0.7-3.6,3-4.1,5.8
		C101.7,220.9,103.1,223.6,105.4,223.6z"></path>
		<path class="st0" d="M105.4,224.1h-2.1c-1,0-1.9-0.4-2.6-1.2c-1.1-1.5-1.5-3.5-1.1-5.3c0.6-3.6,3.1-6.4,5.6-6.4h2.1
		c0.3,0,0.5,0.2,0.5,0.5s-0.2,0.5-0.5,0.5c-0.3,0-0.6,0.1-0.9,0.2c-1.8,0.6-3.3,2.9-3.7,5.4c-0.4,1.6,0,3.2,0.9,4.5
		c0.4,0.5,1.1,0.9,1.8,0.9c0.3,0,0.5,0.2,0.5,0.5S105.7,224.1,105.4,224.1z M104.6,212.2c-1.8,0.4-3.6,2.7-4,5.5
		c-0.4,1.6,0,3.2,0.9,4.5c0.4,0.5,1,0.8,1.6,0.9c-0.1-0.1-0.1-0.1-0.2-0.2c-1.1-1.5-1.5-3.5-1.1-5.3
		C102.1,215.5,103.1,213.6,104.6,212.2z"></path>
		<ellipse class="st0" transform="matrix(0.7355 -0.6775 0.6775 0.7355 -121.3799 136.2768)" cx="113.9" cy="223.6"
			rx="1.9" ry="1.6"></ellipse>
		<path class="st1"
			d="M119.6,217.6h-2.1c0.4-2.8-0.5-5.1-2.2-5.8c0.4-0.1,0.7-0.2,1.1-0.2C118.7,211.7,120.1,214.3,119.6,217.6z">
		</path>
		<path class="st0" d="M119.6,218.1h-2.1c-0.1,0-0.3-0.1-0.4-0.2c-0.1-0.1-0.1-0.3-0.1-0.4c0.4-2.5-0.3-4.6-1.8-5.2
		c-0.2-0.1-0.3-0.3-0.3-0.5c0-0.2,0.1-0.4,0.3-0.5c1.4-0.5,2.9-0.1,3.8,1c1.1,1.5,1.5,3.5,1.1,5.3
		C120,217.9,119.8,218.1,119.6,218.1z M118,217.1h1.1c0.2-1.4-0.1-2.9-0.9-4.1c-0.4-0.5-1-0.8-1.6-0.9
		C117.8,213.5,118.3,215.3,118,217.1z"></path>
		<path class="st2" d="M114.4,223.6h-2.1c-2.3,0-3.7-2.7-3.2-6s2.8-6,5.1-6h2.1c-0.4,0-0.7,0.1-1.1,0.2c-1.9,0.7-3.6,3-4.1,5.8
		C110.7,220.9,112.1,223.6,114.4,223.6z"></path>
		<path class="st0"
			d="M114.4,224.1h-2.1c-1,0-1.9-0.4-2.6-1.2c-1.1-1.5-1.5-3.5-1.1-5.3c0.6-3.6,3.1-6.4,5.6-6.4h2.1
		c0.3,0,0.5,0.2,0.5,0.5c0,0.3-0.2,0.5-0.5,0.5c-0.3,0-0.6,0.1-0.9,0.2c-1.8,0.6-3.3,2.9-3.7,5.4c-0.4,1.6,0,3.2,0.9,4.5
		c0.4,0.5,1.1,0.9,1.8,0.9c0.3,0,0.5,0.2,0.5,0.5C114.9,223.9,114.7,224.1,114.4,224.1z M113.6,212.2c-1.8,0.4-3.6,2.7-4,5.5
		c-0.4,1.6,0,3.2,0.9,4.5c0.4,0.5,0.9,0.8,1.6,0.9l-0.2-0.2c-1.1-1.5-1.5-3.5-1.1-5.3C111.1,215.5,112.1,213.6,113.6,212.2z"></path>
	</g>
	<g id="mug">
		<path class="st2" d="M444.7,231.9v41.4c0,0,0,13.5-25.4,13.5S394,274.3,394,274.3v-42.4H444.7z"></path>
		<path class="st0" d="M419.4,287.2c-10.8,0-18.4-2.2-22.6-6.5c-1.8-1.7-3-4-3.2-6.5v-42.4c0-0.3,0.2-0.5,0.5-0.5h50.7
		c0.3,0,0.5,0.2,0.5,0.5v41.4c-0.2,2.8-1.5,5.5-3.6,7.4C437.3,285,429.8,287.2,419.4,287.2z M394.5,232.4v41.9c0,0.1,0.3,12,24.9,12
		c12.9,0,19-3.5,21.8-6.5c1.8-1.7,2.8-4,3.1-6.5v-40.9H394.5z"></path>
		<path class="st2" d="M444.7,231.9c0,0.6-0.7,1.1-2,1.7c-3.9-1.5-12.9-2.6-23.4-2.6s-19.5,1.1-23.4,2.6c-1.3-0.5-2-1.1-2-1.7
		c0-2.4,11.4-4.3,25.4-4.3S444.7,229.5,444.7,231.9z"></path>
		<path class="st0" d="M396,234.1c-0.1,0-0.1,0-0.2,0c-1.6-0.6-2.3-1.3-2.3-2.1c0-3.5,15.5-4.8,25.9-4.8s25.9,1.3,25.9,4.8
		c0,0.8-0.8,1.5-2.3,2.1c-0.1,0-0.3,0-0.4,0c-3.9-1.6-13-2.6-23.2-2.6s-19.3,1-23.2,2.6C396.1,234.1,396.1,234.1,396,234.1z
		 M419.4,228.1c-17.7,0-24.9,2.6-24.9,3.8c0,0.2,0.4,0.6,1.5,1.1c4.1-1.6,13.2-2.6,23.4-2.6s19.2,1,23.4,2.6
		c1.1-0.5,1.5-0.9,1.5-1.1C444.2,230.8,437.1,228.1,419.4,228.1L419.4,228.1z"></path>
		<ellipse class="st0" cx="419.4" cy="233.6" rx="23.4" ry="2.6"></ellipse>
		<path class="st0"
			d="M419.4,236.6c-10.3,0-19.5-1-23.5-2.6c-0.3-0.1-0.4-0.4-0.3-0.6c0-0.1,0.2-0.2,0.3-0.3
		c4-1.6,13.3-2.6,23.5-2.6s19.5,1,23.5,2.6c0.2,0.1,0.3,0.3,0.3,0.5c0,0.2-0.1,0.4-0.3,0.5C438.9,235.6,429.6,236.6,419.4,236.6z
		 M397.5,233.5c4.4,1.3,12.7,2.1,21.8,2.1s17.4-0.8,21.8-2.1c-4.4-1.3-12.7-2.1-21.8-2.1S402,232.3,397.5,233.5L397.5,233.5z"></path>
		<path class="st1" d="M467.5,252.2c-1.1-4.6-4.4-8.3-8.9-9.8c-9.3-2.9-16.5,5.9-16.8,6.3c-1.1,1.5-0.8,3.6,0.7,4.7
		c1.4,1.1,3.4,0.9,4.5-0.5c0-0.1,4.8-5.7,9.7-4.2c2.2,0.8,3.9,2.7,4.4,5c0.6,2.7-0.3,5.6-2.4,7.4c-4.7,4.6-12.6,0.6-12.6,0.6
		c-1.6-0.9-3.7-0.2-4.5,1.4c-0.9,1.6-0.2,3.7,1.4,4.5c3.1,1.5,6.5,2.4,9.9,2.4c4,0.1,7.8-1.4,10.6-4.2
		C467.1,262.5,468.7,257.2,467.5,252.2z"></path>
		<path class="st0" d="M452.8,270.7c-3.5-0.1-7-0.9-10.1-2.5c-1.9-1-2.6-3.3-1.6-5.2c1-1.9,3.3-2.6,5.2-1.6c0.1,0,7.7,3.8,12.1-0.5
		c2-1.7,2.8-4.4,2.3-6.9c-0.5-2.1-2-3.9-4-4.6c-4.5-1.4-9.1,3.9-9.1,4c-1.3,1.7-3.8,1.9-5.4,0.6c-1.7-1.3-1.9-3.8-0.6-5.4l0,0
		c0.3-0.4,7.8-9.5,17.4-6.5c4.6,1.6,8.1,5.4,9.2,10.1l0,0c1.2,5.2-0.4,10.6-4.3,14.2C460.8,269.2,456.8,270.7,452.8,270.7z
		 M444.4,261.9c-1.6,0-2.8,1.3-2.9,2.8c0,1.1,0.6,2,1.5,2.5c3,1.5,6.3,2.3,9.7,2.4c3.8,0.1,7.5-1.4,10.2-4.1
		c3.6-3.4,5.2-8.4,4.1-13.2l0,0c-1-4.4-4.3-8-8.5-9.4c-9-2.8-16,5.8-16.3,6.2c-0.9,1.3-0.7,3,0.6,4c1.2,0.9,2.9,0.7,3.8-0.4
		c0.2-0.2,5-5.9,10.2-4.3c2.4,0.9,4.2,2.9,4.7,5.3c0.7,2.9-0.3,5.9-2.5,7.9c-4.9,4.9-12.9,0.9-13.2,0.7
		C445.4,262,444.9,261.9,444.4,261.9z"></path>
	</g>
</svg>